<svg width="756" height="521" viewBox="0 0 756 521" fill="none" xmlns="http://www.w3.org/2000/svg">
<g filter="url(#filter0_d_0_1256)">
<g style="mix-blend-mode:lighten">
<path d="M118.423 274.887C115.514 274.902 112.651 274.158 110.116 272.729L14.4213 217.47C13.6911 217.048 13.0848 216.44 12.6634 215.709C12.2419 214.979 12.02 214.15 12.02 213.306C12.02 212.462 12.2419 211.633 12.6634 210.902C13.0848 210.171 13.6911 209.564 14.4213 209.142L187.578 109.175C187.722 109.089 187.886 109.044 188.053 109.044C188.22 109.044 188.384 109.089 188.527 109.175L189.347 109.628L292.055 168.879C292.79 169.297 293.402 169.902 293.828 170.634C294.253 171.365 294.478 172.197 294.478 173.043C294.478 173.889 294.253 174.72 293.828 175.452C293.402 176.183 292.79 176.789 292.055 177.207L126.752 272.665C124.217 274.119 121.346 274.885 118.423 274.887ZM188.053 111.052L15.4354 210.738C14.9963 210.992 14.6318 211.357 14.3783 211.796C14.1249 212.236 13.9915 212.734 13.9915 213.241C13.9915 213.748 14.1249 214.247 14.3783 214.686C14.6318 215.125 14.9963 215.49 15.4354 215.744L111.13 271.003C113.373 272.266 115.903 272.929 118.477 272.929C121.051 272.929 123.581 272.266 125.824 271.003L291.148 175.546C291.587 175.292 291.952 174.927 292.205 174.488C292.459 174.048 292.592 173.55 292.592 173.043C292.592 172.536 292.459 172.037 292.205 171.598C291.952 171.159 291.587 170.794 291.148 170.54L188.053 111.052Z" fill="#FCA311"/>
</g>
<path d="M304.484 142.037L294.429 147.194L193.707 89.0434C192.664 88.5739 191.526 88.3548 190.383 88.4035C189.241 88.4522 188.125 88.7673 187.126 89.3238L13.3868 189.701C11.7253 188.773 4.15173 185.126 4.15173 185.126L7.81984 194.707C8.01233 195.203 8.38116 195.61 8.85554 195.85L114.929 257.086C115.97 257.559 117.107 257.782 118.25 257.737C119.393 257.692 120.509 257.38 121.51 256.827L299.306 154.185C299.968 153.835 300.492 153.273 300.795 152.588L304.484 142.037Z" fill="url(#paint0_linear_0_1256)"/>
<path d="M302.843 143.698L120.624 248.887C119.601 249.455 118.46 249.776 117.291 249.824C116.122 249.873 114.958 249.648 113.892 249.167L5.16439 186.399C3.43822 185.385 3.65401 183.659 5.66069 182.494L187.858 77.3051C188.881 76.7371 190.022 76.416 191.191 76.3673C192.36 76.3186 193.524 76.5437 194.59 77.0246L303.318 139.793C305.13 140.72 305.001 142.533 302.843 143.698Z" fill="url(#paint1_linear_0_1256)"/>
<path d="M302.843 142.641L120.624 247.83C119.605 248.408 118.463 248.734 117.292 248.783C116.121 248.832 114.956 248.601 113.892 248.11L5.16485 185.342C4.67834 185.101 4.30081 184.685 4.10759 184.177C3.99929 184.604 4.04614 185.055 4.23982 185.45C4.43349 185.845 4.76135 186.159 5.16485 186.335L113.892 249.103C114.959 249.584 116.123 249.809 117.291 249.76C118.46 249.711 119.602 249.39 120.624 248.822L302.843 143.698C304.181 142.922 304.699 141.886 304.375 140.98C304.079 141.698 303.536 142.288 302.843 142.641Z" fill="white"/>
<path d="M65.752 226.123V224.138C65.752 223.944 65.8814 223.858 66.0109 223.944L73.0666 228C73.1466 228.056 73.2119 228.13 73.257 228.217C73.3021 228.303 73.3256 228.399 73.3256 228.497V230.503C73.3256 230.698 73.2177 230.784 73.0666 230.698L66.0109 226.619C65.9344 226.56 65.8717 226.485 65.827 226.4C65.7823 226.314 65.7567 226.22 65.752 226.123Z" fill="#2842A2"/>
<path d="M76.2834 232.208V230.222C76.2834 230.028 76.3913 229.942 76.5424 230.028L83.5765 234.085C83.6565 234.141 83.7218 234.215 83.7669 234.301C83.812 234.388 83.8355 234.484 83.8355 234.581V236.588C83.8355 236.782 83.7276 236.868 83.5765 236.782L76.5424 232.704C76.4624 232.648 76.3971 232.574 76.352 232.488C76.3069 232.401 76.2834 232.305 76.2834 232.208Z" fill="#2842A2"/>
<path d="M66.5522 200.662L217.959 113.253C218.454 112.967 219.016 112.817 219.588 112.817C220.16 112.817 220.722 112.967 221.217 113.253L275.16 144.454C275.335 144.557 275.479 144.703 275.58 144.879C275.68 145.055 275.733 145.254 275.733 145.457C275.733 145.66 275.68 145.859 275.58 146.035C275.479 146.211 275.335 146.357 275.16 146.46L123.753 233.826C123.258 234.112 122.696 234.263 122.124 234.263C121.552 234.263 120.99 234.112 120.495 233.826L66.5522 202.669C66.3778 202.566 66.2332 202.419 66.1328 202.243C66.0323 202.067 65.9795 201.868 65.9795 201.665C65.9795 201.463 66.0323 201.264 66.1328 201.088C66.2332 200.912 66.3778 200.765 66.5522 200.662Z" fill="#8389E6"/>
<path d="M66.5505 202.669L67.0899 202.992L217.957 115.885C218.453 115.599 219.015 115.449 219.587 115.449C220.158 115.449 220.72 115.599 221.216 115.885L274.597 146.762L275.137 146.46C275.311 146.357 275.456 146.211 275.556 146.035C275.657 145.859 275.71 145.66 275.71 145.457C275.71 145.254 275.657 145.055 275.556 144.879C275.456 144.703 275.311 144.557 275.137 144.454L221.194 113.253C220.699 112.967 220.137 112.817 219.565 112.817C218.993 112.817 218.431 112.967 217.936 113.253L66.5289 200.662C66.3556 200.767 66.2125 200.915 66.114 201.092C66.0154 201.269 65.9647 201.469 65.9669 201.672C65.969 201.874 66.024 202.073 66.1263 202.248C66.2287 202.422 66.3749 202.568 66.5505 202.669Z" fill="#424BA0"/>
<path d="M225.293 121.15L85.8178 201.654L78.9131 198.892L219.445 117.762L225.293 121.15Z" fill="#24126A"/>
<path d="M239.623 129.414L116.267 200.641L110.419 197.275L233.776 126.048L239.623 129.414Z" fill="#24126A"/>
<path d="M248.965 134.809L103.729 218.658L97.8818 215.291L243.118 131.443L248.965 134.809Z" fill="#24126A"/>
<path d="M258.308 140.202L113.051 224.051L107.204 220.685L252.461 136.815L258.308 140.202Z" fill="#24126A"/>
<path d="M267.652 145.597L122.394 229.446L116.547 226.08L261.804 142.209L267.652 145.597Z" fill="#24126A"/>
<path d="M85.8206 201.655L79.9731 205.042L74.1257 201.655L79.9731 198.289L85.8206 201.655Z" fill="#24126A"/>
<path d="M123.366 196.541L94.3228 213.328L88.4753 209.94L117.734 193.045L123.366 196.541Z" fill="#24126A"/>
<path d="M120.451 161.478L161.275 137.916C161.623 137.795 161.925 137.57 162.138 137.27C162.352 136.97 162.467 136.611 162.467 136.243C162.467 135.875 162.352 135.517 162.138 135.217C161.925 134.917 161.623 134.691 161.275 134.571L133.354 118.453C132.459 118.008 131.473 117.777 130.474 117.777C129.474 117.777 128.488 118.008 127.593 118.453L86.7693 142.037C85.1726 142.965 85.1726 144.453 86.7693 145.36L114.669 161.478C115.567 161.926 116.556 162.159 117.56 162.159C118.564 162.159 119.553 161.926 120.451 161.478Z" fill="url(#paint2_linear_0_1256)"/>
<path d="M86.7689 143.396L127.593 119.834C128.484 119.376 129.472 119.137 130.473 119.137C131.475 119.137 132.463 119.376 133.354 119.834L161.275 135.952C161.696 136.176 162.047 136.512 162.289 136.923C162.699 136.125 162.289 135.218 161.275 134.571L133.354 118.453C132.459 118.008 131.473 117.777 130.473 117.777C129.474 117.777 128.488 118.008 127.593 118.453L86.7689 142.037C85.6469 142.663 85.3449 143.569 85.7549 144.389C85.9901 143.967 86.3422 143.622 86.7689 143.396Z" fill="#424BA0"/>
<path d="M304.181 139.34L281.266 2.62673L283.121 1.84995L280.338 0.253242C280.002 0.0670788 279.62 -0.0177472 279.237 0.00906044C278.854 0.0358681 278.487 0.173159 278.18 0.404282L94.1056 106.672C93.3254 107.167 92.6931 107.863 92.2753 108.687C91.8576 109.511 91.6699 110.432 91.7321 111.354L114.949 249.081C114.974 249.38 115.076 249.666 115.247 249.912C115.417 250.159 115.649 250.356 115.92 250.484L118.66 252.059L119.114 249.513H118.962L301.915 143.892C302.65 143.39 303.243 142.707 303.64 141.91C304.036 141.114 304.222 140.229 304.181 139.34Z" fill="url(#paint3_linear_0_1256)"/>
<path d="M95.0339 110.512L92.0131 109.174C91.6625 109.882 91.5274 110.678 91.6247 111.461L114.842 249.189C114.866 249.487 114.969 249.774 115.139 250.02C115.31 250.266 115.542 250.463 115.813 250.591L118.553 252.166L119.006 249.62H118.855L128.069 244.29L95.0339 110.512Z" fill="url(#paint4_linear_0_1256)"/>
<path d="M304.678 145.683L120.603 251.95C119.179 252.77 117.971 252.295 117.712 250.828L94.5164 113.08C94.4582 112.161 94.6478 111.244 95.0653 110.425C95.4828 109.605 96.113 108.912 96.8898 108.419L280.965 2.12988C282.389 1.30995 283.597 1.78466 283.856 3.27349L307.159 141.001C307.199 141.931 306.99 142.855 306.554 143.678C306.118 144.501 305.47 145.193 304.678 145.683Z" fill="#453C9E"/>
<g style="mix-blend-mode:lighten">
<path d="M637.613 274.887C634.703 274.907 631.838 274.163 629.305 272.729L463.981 177.272C463.251 176.849 462.645 176.242 462.223 175.511C461.802 174.78 461.58 173.951 461.58 173.108C461.58 172.264 461.802 171.435 462.223 170.704C462.645 169.973 463.251 169.366 463.981 168.943L567.552 109.175C567.699 109.089 567.867 109.045 568.037 109.045C568.208 109.045 568.375 109.089 568.523 109.175L741.658 209.142C742.394 209.56 743.005 210.166 743.431 210.897C743.857 211.629 744.081 212.46 744.081 213.306C744.081 214.152 743.857 214.983 743.431 215.715C743.005 216.446 742.394 217.052 741.658 217.47L645.92 272.665C643.393 274.121 640.529 274.887 637.613 274.887ZM567.983 111.052L567.66 111.246L464.931 170.54C464.497 170.798 464.138 171.165 463.888 171.603C463.639 172.042 463.508 172.538 463.508 173.043C463.508 173.548 463.639 174.044 463.888 174.483C464.138 174.921 464.497 175.288 464.931 175.546L630.255 271.003C632.504 272.258 635.037 272.917 637.613 272.917C640.188 272.917 642.721 272.258 644.971 271.003L740.665 215.744C741.104 215.49 741.469 215.125 741.722 214.686C741.976 214.247 742.109 213.748 742.109 213.241C742.109 212.734 741.976 212.236 741.722 211.796C741.469 211.357 741.104 210.992 740.665 210.738L567.983 111.052Z" fill="#FCA311"/>
</g>
<path d="M451.574 142.036L461.608 147.28L562.352 89.1292C563.379 88.674 564.498 88.4625 565.621 88.5111C566.744 88.5598 567.84 88.8673 568.825 89.4097L742.564 189.7C744.225 188.773 751.799 185.126 751.799 185.126L748.131 194.706C747.944 195.198 747.583 195.605 747.117 195.85L641.022 257.086C639.995 257.541 638.878 257.754 637.755 257.71C636.633 257.665 635.536 257.363 634.549 256.827L456.775 154.184C456.107 153.842 455.581 153.277 455.286 152.588L451.574 142.036Z" fill="url(#paint5_linear_0_1256)"/>
<path d="M453.13 143.698L635.327 248.887C636.35 249.455 637.491 249.776 638.66 249.825C639.829 249.873 640.993 249.648 642.059 249.167L750.787 186.399C752.513 185.385 752.297 183.659 750.312 182.494L568.114 77.3054C567.088 76.7372 565.943 76.416 564.771 76.3673C563.598 76.3186 562.431 76.5438 561.361 77.0249L452.633 139.793C450.907 140.721 451.123 142.533 453.13 143.698Z" fill="url(#paint6_linear_0_1256)"/>
<path d="M453.127 142.64L635.325 247.829C636.344 248.407 637.486 248.734 638.657 248.783C639.827 248.831 640.993 248.601 642.057 248.11L750.784 185.342C751.27 185.1 751.648 184.684 751.841 184.176C751.959 184.603 751.916 185.058 751.722 185.456C751.527 185.853 751.193 186.166 750.784 186.334L642.057 249.102C640.99 249.583 639.826 249.808 638.657 249.759C637.489 249.711 636.347 249.39 635.325 248.822L453.127 143.633C451.789 142.856 451.271 141.82 451.573 140.914C451.865 141.659 452.417 142.272 453.127 142.64Z" fill="white"/>
<path d="M690.281 226.123V224.138C690.281 223.944 690.281 223.858 690.022 223.944L682.966 228C682.89 228.06 682.827 228.134 682.782 228.22C682.737 228.306 682.712 228.4 682.707 228.497V230.503C682.707 230.698 682.836 230.784 682.966 230.698L690.022 226.619C690.102 226.564 690.167 226.49 690.212 226.403C690.257 226.317 690.281 226.221 690.281 226.123Z" fill="#2842A2"/>
<path d="M679.753 232.208V230.222C679.753 230.028 679.624 229.942 679.494 230.028L672.439 234.085C672.359 234.141 672.293 234.215 672.248 234.301C672.203 234.388 672.18 234.484 672.18 234.581V236.588C672.18 236.782 672.288 236.868 672.439 236.782L679.494 232.704C679.571 232.645 679.634 232.57 679.678 232.484C679.723 232.398 679.749 232.304 679.753 232.208Z" fill="#2842A2"/>
<path d="M689.485 200.662L538.035 113.253C537.54 112.967 536.978 112.817 536.406 112.817C535.834 112.817 535.272 112.967 534.777 113.253L480.834 144.454C480.659 144.557 480.515 144.703 480.414 144.879C480.314 145.055 480.261 145.254 480.261 145.457C480.261 145.66 480.314 145.859 480.414 146.035C480.515 146.211 480.659 146.357 480.834 146.46L632.176 233.826C632.671 234.112 633.233 234.263 633.805 234.263C634.377 234.263 634.939 234.112 635.434 233.826L689.377 202.669C689.557 202.576 689.71 202.437 689.82 202.266C689.931 202.096 689.994 201.899 690.005 201.696C690.016 201.494 689.974 201.291 689.883 201.11C689.791 200.929 689.654 200.774 689.485 200.662Z" fill="#8389E6"/>
<path d="M689.483 202.669L688.944 202.992L538.033 115.885C537.538 115.599 536.976 115.449 536.404 115.449C535.832 115.449 535.27 115.599 534.775 115.885L481.436 146.762L480.897 146.46C480.723 146.357 480.578 146.211 480.478 146.035C480.377 145.859 480.324 145.66 480.324 145.457C480.324 145.254 480.377 145.055 480.478 144.879C480.578 144.703 480.723 144.557 480.897 144.454L534.84 113.253C535.335 112.967 535.897 112.817 536.469 112.817C537.041 112.817 537.603 112.967 538.098 113.253L689.505 200.662C689.678 200.767 689.821 200.915 689.92 201.092C690.019 201.269 690.069 201.469 690.067 201.672C690.065 201.874 690.01 202.073 689.907 202.248C689.805 202.422 689.659 202.568 689.483 202.669Z" fill="#424BA0"/>
<path d="M530.74 121.15L670.215 201.654L677.119 198.892L536.587 117.762L530.74 121.15Z" fill="#24126A"/>
<path d="M516.416 129.414L639.772 200.641L645.62 197.275L522.263 126.048L516.416 129.414Z" fill="#24126A"/>
<path d="M507.072 134.809L652.33 218.658L658.156 215.291L512.92 131.443L507.072 134.809Z" fill="#24126A"/>
<path d="M497.729 140.202L642.987 224.051L648.834 220.685L503.577 136.815L497.729 140.202Z" fill="#24126A"/>
<path d="M488.407 145.597L633.643 229.446L639.491 226.08L494.255 142.209L488.407 145.597Z" fill="#24126A"/>
<path d="M670.216 201.655L676.063 205.042L681.911 201.655L676.063 198.289L670.216 201.655Z" fill="#24126A"/>
<path d="M632.671 196.541L661.735 213.328L667.583 209.94L638.324 193.045L632.671 196.541Z" fill="#24126A"/>
<path d="M635.586 161.478L594.762 137.916C594.414 137.795 594.112 137.57 593.899 137.27C593.685 136.97 593.571 136.611 593.571 136.243C593.571 135.875 593.685 135.517 593.899 135.217C594.112 134.917 594.414 134.691 594.762 134.571L622.683 118.453C623.581 118.005 624.57 117.771 625.574 117.771C626.578 117.771 627.567 118.005 628.465 118.453L669.289 142.037C670.886 142.965 670.886 144.454 669.289 145.36L641.368 161.478C640.471 161.926 639.481 162.16 638.477 162.16C637.474 162.16 636.484 161.926 635.586 161.478Z" fill="url(#paint7_linear_0_1256)"/>
<path d="M669.288 143.396L628.464 119.834C627.566 119.386 626.576 119.152 625.572 119.152C624.569 119.152 623.579 119.386 622.681 119.834L594.76 135.952C594.341 136.171 593.995 136.509 593.768 136.923C593.336 136.125 593.66 135.219 594.76 134.571L622.681 118.453C623.579 118.005 624.569 117.771 625.572 117.771C626.576 117.771 627.566 118.005 628.464 118.453L669.288 142.037C670.388 142.663 670.712 143.569 670.28 144.389C670.054 143.968 669.709 143.623 669.288 143.396Z" fill="#424BA0"/>
<path d="M451.855 139.34L474.899 2.62666L473.043 1.84988L475.827 0.253173C476.162 0.0643121 476.545 -0.0220565 476.928 0.00479378C477.312 0.0316441 477.679 0.170531 477.985 0.404213L662.059 106.672C662.839 107.169 663.471 107.865 663.892 108.688C664.313 109.511 664.507 110.431 664.454 111.354L641.237 249.081C641.207 249.378 641.102 249.662 640.932 249.907C640.762 250.152 640.533 250.35 640.266 250.483L637.548 252.059L637.073 249.513H637.224L454.271 143.892C453.509 143.407 452.886 142.733 452.462 141.935C452.038 141.137 451.829 140.243 451.855 139.34Z" fill="url(#paint8_linear_0_1256)"/>
<path d="M661.024 110.512L664.067 109.174C664.397 109.889 664.532 110.678 664.455 111.461L641.238 249.189C641.208 249.485 641.102 249.769 640.933 250.015C640.763 250.26 640.534 250.458 640.267 250.591L637.548 252.166L637.074 249.62H637.225L627.947 244.29L661.024 110.512Z" fill="url(#paint9_linear_0_1256)"/>
<path d="M451.36 145.683L635.434 251.95C636.858 252.77 638.067 252.295 638.326 250.828L661.543 113.08C661.592 112.16 661.396 111.244 660.975 110.426C660.554 109.607 659.924 108.914 659.148 108.419L475.073 2.12988C473.649 1.30995 472.44 1.78466 472.182 3.27349L448.965 141.001C448.916 141.923 449.112 142.841 449.533 143.664C449.953 144.486 450.583 145.182 451.36 145.683Z" fill="#453C9E"/>
<path d="M378.019 307.835L206.631 208.883L378.019 109.93L549.406 208.883L378.019 307.835Z" fill="#8D90F0"/>
<path d="M378.018 280.799L253.431 208.883L378.018 136.944L502.604 208.883L378.018 280.799Z" fill="#453C9E"/>
<path d="M378.018 141.821L498.397 211.321L502.604 208.883L378.018 136.944L253.431 208.883L257.639 211.299L378.018 141.821Z" fill="white"/>
<path d="M549.405 208.882V264.961L378.018 363.914V307.835L549.405 208.882Z" fill="url(#paint10_linear_0_1256)"/>
<path d="M206.631 208.882V264.961L378.019 363.914V307.835L206.631 208.882Z" fill="#24126A"/>
<g opacity="0.51">
<path d="M218.237 234.064V251.735L366.407 337.289V319.617L218.237 234.064Z" fill="#453C9E"/>
</g>
<path d="M378.019 304.62L209.415 207.264L206.631 208.882L378.019 307.835L549.406 208.882L546.623 207.264L378.019 304.62Z" fill="white"/>
<path d="M523.707 248.175V258.23L403.738 327.493V317.46L523.707 248.175Z" fill="#453C9E"/>
<path opacity="0.51" d="M206.631 208.882V264.961L378.019 363.914V307.835L206.631 208.882Z" fill="#453C9E"/>
<path d="M327.98 304.858L296.952 286.928V290.639L327.98 308.548V304.858Z" fill="#FCA311"/>
<path d="M292.484 284.381L284.069 279.526V283.238L292.463 288.093L292.484 284.381Z" fill="#FCA311"/>
<path d="M253.085 261.639L235.866 251.713V255.403L253.085 265.35V261.639Z" fill="#FCA311"/>
<path d="M268.772 270.702L256.343 263.516V267.228L268.772 274.413V270.702Z" fill="#FCA311"/>
<path d="M280.444 277.455L272.05 272.6L272.029 276.29L280.444 281.145V277.455Z" fill="#FCA311"/>
<path d="M378.192 161.651L372.754 158.501L378.192 155.35L383.651 158.501L378.192 161.651Z" fill="#FCA311"/>
<path opacity="0.1" d="M389.086 167.93L383.648 164.779L389.086 161.651L394.523 164.779L389.086 167.93Z" fill="#FCA311"/>
<path opacity="0.4" d="M399.963 174.208L394.526 171.058L399.963 167.929L405.401 171.058L399.963 174.208Z" fill="#FCA311"/>
<path d="M410.857 180.487L405.398 177.358L410.857 174.208L416.295 177.358L410.857 180.487Z" fill="#FCA311"/>
<path opacity="0.4" d="M421.734 186.788L416.297 183.638L421.734 180.487L427.172 183.638L421.734 186.788Z" fill="#FCA311"/>
<path d="M432.628 193.067L427.169 189.917L432.628 186.788L438.066 189.917L432.628 193.067Z" fill="#FCA311"/>
<path d="M443.505 199.346L438.068 196.196L443.505 193.067L448.943 196.196L443.505 199.346Z" fill="#FCA311"/>
<path d="M454.378 205.624L448.94 202.496L454.378 199.345L459.837 202.496L454.378 205.624Z" fill="#FCA311"/>
<path opacity="0.1" d="M465.276 211.904L459.839 208.775L465.276 205.625L470.713 208.775L465.276 211.904Z" fill="#FCA311"/>
<path d="M367.273 167.951L361.814 164.8L367.273 161.672L372.711 164.8L367.273 167.951Z" fill="#FCA311"/>
<path d="M378.146 174.23L372.708 171.101L378.146 167.951L383.583 171.101L378.146 174.23Z" fill="#FCA311"/>
<path d="M389.044 180.509L383.585 177.381L389.044 174.23L394.482 177.381L389.044 180.509Z" fill="#FCA311"/>
<path d="M399.917 186.809L394.479 183.659L399.917 180.509L405.354 183.659L399.917 186.809Z" fill="#FCA311"/>
<path d="M410.815 193.088L405.356 189.938L410.815 186.809L416.253 189.938L410.815 193.088Z" fill="#FCA311"/>
<path d="M421.692 199.367L416.254 196.238L421.692 193.088L427.129 196.238L421.692 199.367Z" fill="#FCA311"/>
<path d="M432.586 205.668L427.127 202.518L432.586 199.367L438.024 202.518L432.586 205.668Z" fill="#FCA311"/>
<path d="M443.463 211.947L438.025 208.797L443.463 205.668L448.9 208.797L443.463 211.947Z" fill="#FCA311"/>
<path d="M454.357 218.226L448.898 215.076L454.357 211.947L459.795 215.076L454.357 218.226Z" fill="#FCA311"/>
<path d="M356.332 174.251L350.895 171.122L356.332 167.972L361.791 171.122L356.332 174.251Z" fill="#FCA311"/>
<path d="M367.231 180.552L361.793 177.402L367.231 174.251L372.668 177.402L367.231 180.552Z" fill="#FCA311"/>
<path d="M378.103 186.831L372.666 183.68L378.103 180.552L383.541 183.68L378.103 186.831Z" fill="#FCA311"/>
<path opacity="0.1" d="M389.002 193.11L383.543 189.96L389.002 186.831L394.44 189.96L389.002 193.11Z" fill="#FCA311"/>
<path opacity="0.4" d="M399.874 199.389L394.437 196.261L399.874 193.11L405.312 196.261L399.874 199.389Z" fill="#FCA311"/>
<path opacity="0.4" d="M410.773 205.689L405.314 202.539L410.773 199.389L416.211 202.539L410.773 205.689Z" fill="#FCA311"/>
<path d="M421.645 211.968L416.208 208.818L421.645 205.689L427.083 208.818L421.645 211.968Z" fill="#FCA311"/>
<path d="M432.523 218.247L427.085 215.118L432.523 211.968L437.982 215.118L432.523 218.247Z" fill="#FCA311"/>
<path d="M443.416 224.526L437.979 221.398L443.416 218.248L448.854 221.398L443.416 224.526Z" fill="#FCA311"/>
<path opacity="0.4" d="M345.414 180.574L339.955 177.424L345.414 174.273L350.851 177.424L345.414 180.574Z" fill="#FCA311"/>
<path opacity="0.4" d="M356.29 186.853L350.853 183.703L356.29 180.574L361.728 183.703L356.29 186.853Z" fill="#FCA311"/>
<path opacity="0.1" d="M367.185 193.131L361.726 190.002L367.185 186.852L372.622 190.002L367.185 193.131Z" fill="#FCA311"/>
<path d="M378.061 199.432L372.624 196.282L378.061 193.131L383.499 196.282L378.061 199.432Z" fill="#FCA311"/>
<path d="M388.956 205.711L383.497 202.56L388.956 199.432L394.393 202.56L388.956 205.711Z" fill="#FCA311"/>
<path d="M399.832 211.99L394.395 208.84L399.832 205.711L405.27 208.84L399.832 211.99Z" fill="#FCA311"/>
<path opacity="0.4" d="M410.727 218.269L405.268 215.141L410.727 211.99L416.164 215.141L410.727 218.269Z" fill="#FCA311"/>
<path d="M421.603 224.569L416.166 221.419L421.603 218.269L427.041 221.419L421.603 224.569Z" fill="#FCA311"/>
<path d="M432.48 230.848L427.043 227.698L432.48 224.569L437.939 227.698L432.48 230.848Z" fill="#FCA311"/>
<path d="M334.477 186.874L329.04 183.745L334.477 180.595L339.915 183.745L334.477 186.874Z" fill="#FCA311"/>
<path d="M345.372 193.153L339.913 190.025L345.372 186.874L350.809 190.025L345.372 193.153Z" fill="#FCA311"/>
<path d="M356.248 199.454L350.811 196.304L356.248 193.154L361.686 196.304L356.248 199.454Z" fill="#FCA311"/>
<path d="M367.143 205.733L361.684 202.583L367.143 199.454L372.58 202.583L367.143 205.733Z" fill="#FCA311"/>
<path d="M378.019 212.011L372.582 208.882L378.019 205.732L383.457 208.882L378.019 212.011Z" fill="#FCA311"/>
<path d="M388.892 218.312L383.455 215.162L388.892 212.011L394.351 215.162L388.892 218.312Z" fill="#FCA311"/>
<path d="M399.79 224.591L394.353 221.44L399.79 218.312L405.228 221.44L399.79 224.591Z" fill="#FCA311"/>
<path d="M410.685 230.87L405.226 227.72L410.685 224.591L416.122 227.72L410.685 230.87Z" fill="#FCA311"/>
<path d="M421.561 237.149L416.124 234.021L421.561 230.87L426.999 234.021L421.561 237.149Z" fill="#FCA311"/>
<path d="M323.558 193.196L318.099 190.046L323.558 186.895L328.996 190.046L323.558 193.196Z" fill="#FCA311"/>
<path d="M334.431 199.475L328.993 196.324L334.431 193.196L339.868 196.324L334.431 199.475Z" fill="#FCA311"/>
<path opacity="0.4" d="M345.329 205.754L339.87 202.604L345.329 199.475L350.767 202.604L345.329 205.754Z" fill="#FCA311"/>
<path d="M356.202 212.033L350.764 208.905L356.202 205.754L361.639 208.905L356.202 212.033Z" fill="#FCA311"/>
<path opacity="0.1" d="M367.1 218.334L361.641 215.184L367.1 212.034L372.538 215.184L367.1 218.334Z" fill="#FCA311"/>
<path d="M377.973 224.613L372.535 221.463L377.973 218.334L383.41 221.463L377.973 224.613Z" fill="#FCA311"/>
<path d="M388.85 230.891L383.413 227.762L388.85 224.612L394.309 227.762L388.85 230.891Z" fill="#FCA311"/>
<path d="M399.748 237.17L394.311 234.042L399.748 230.891L405.185 234.042L399.748 237.17Z" fill="#FCA311"/>
<path d="M410.621 243.471L405.184 240.321L410.621 237.171L416.08 240.321L410.621 243.471Z" fill="#FCA311"/>
<path d="M312.618 199.497L307.18 196.368L312.618 193.218L318.055 196.368L312.618 199.497Z" fill="#FCA311"/>
<path d="M323.512 205.776L318.053 202.647L323.512 199.497L328.949 202.647L323.512 205.776Z" fill="#FCA311"/>
<path opacity="0.4" d="M334.389 212.076L328.951 208.926L334.389 205.775L339.826 208.926L334.389 212.076Z" fill="#FCA311"/>
<path d="M345.287 218.355L339.828 215.204L345.287 212.076L350.725 215.204L345.287 218.355Z" fill="#FCA311"/>
<path d="M356.16 224.634L350.722 221.484L356.16 218.355L361.597 221.484L356.16 224.634Z" fill="#FCA311"/>
<path opacity="0.1" d="M367.058 230.913L361.599 227.785L367.058 224.634L372.496 227.785L367.058 230.913Z" fill="#FCA311"/>
<path opacity="0.4" d="M377.931 237.214L372.493 234.064L377.931 230.914L383.368 234.064L377.931 237.214Z" fill="#FCA311"/>
<path d="M388.829 243.493L383.37 240.343L388.829 237.214L394.267 240.343L388.829 243.493Z" fill="#FCA311"/>
<path opacity="0.1" d="M399.702 249.771L394.264 246.642L399.702 243.492L405.139 246.642L399.702 249.771Z" fill="#FCA311"/>
<path d="M301.699 205.797L296.24 202.668L301.699 199.518L307.136 202.668L301.699 205.797Z" fill="#FCA311"/>
<path opacity="0.4" d="M312.575 212.098L307.138 208.948L312.575 205.797L318.013 208.948L312.575 212.098Z" fill="#FCA311"/>
<path d="M323.47 218.377L318.011 215.226L323.47 212.098L328.907 215.226L323.47 218.377Z" fill="#FCA311"/>
<path d="M334.347 224.656L328.909 221.527L334.347 218.377L339.784 221.527L334.347 224.656Z" fill="#FCA311"/>
<path d="M345.219 230.956L339.782 227.806L345.219 224.655L350.678 227.806L345.219 230.956Z" fill="#FCA311"/>
<path d="M356.118 237.235L350.68 234.084L356.118 230.956L361.555 234.084L356.118 237.235Z" fill="#FCA311"/>
<path d="M366.99 243.514L361.553 240.364L366.99 237.235L372.449 240.364L366.99 243.514Z" fill="#FCA311"/>
<path opacity="0.4" d="M377.889 249.793L372.451 246.665L377.889 243.514L383.326 246.665L377.889 249.793Z" fill="#FCA311"/>
<path d="M388.761 256.094L383.324 252.944L388.761 249.794L394.22 252.944L388.761 256.094Z" fill="#FCA311"/>
<path d="M290.758 212.12L285.321 208.969L290.758 205.841L296.196 208.969L290.758 212.12Z" fill="#FCA311"/>
<path opacity="0.1" d="M301.657 218.398L296.198 215.269L301.657 212.119L307.094 215.269L301.657 218.398Z" fill="#FCA311"/>
<path d="M312.529 224.677L307.092 221.548L312.529 218.398L317.967 221.548L312.529 224.677Z" fill="#FCA311"/>
<path d="M323.428 230.978L317.969 227.828L323.428 224.677L328.865 227.828L323.428 230.978Z" fill="#FCA311"/>
<path d="M334.304 237.257L328.867 234.106L334.304 230.978L339.742 234.106L334.304 237.257Z" fill="#FCA311"/>
<path d="M345.199 243.536L339.74 240.407L345.199 237.257L350.636 240.407L345.199 243.536Z" fill="#FCA311"/>
<path opacity="0.4" d="M356.075 249.836L350.638 246.686L356.075 243.535L361.513 246.686L356.075 249.836Z" fill="#FCA311"/>
<path d="M366.948 256.115L361.511 252.964L366.948 249.836L372.407 252.964L366.948 256.115Z" fill="#FCA311"/>
<path d="M377.846 262.394L372.409 259.244L377.846 256.115L383.284 259.244L377.846 262.394Z" fill="#FCA311"/>
<path d="M378.019 210.717L206.631 111.764L378.019 12.8114L549.406 111.764L378.019 210.717Z" fill="#8D90F0"/>
<path d="M378.018 183.681L253.431 111.764L378.018 39.8261L502.604 111.764L378.018 183.681Z" fill="#453C9E"/>
<path d="M378.018 44.7025L498.397 114.203L502.604 111.764L378.018 39.8261L253.431 111.764L257.639 114.181L378.018 44.7025Z" fill="white"/>
<path d="M549.405 111.764V167.843L378.018 266.796V210.717L549.405 111.764Z" fill="url(#paint11_linear_0_1256)"/>
<path d="M206.631 111.764V167.843L378.019 266.796V210.717L206.631 111.764Z" fill="#24126A"/>
<g opacity="0.51">
<path d="M218.237 136.967V154.617L366.407 240.17V222.499L218.237 136.967Z" fill="#453C9E"/>
</g>
<path d="M378.019 207.502L209.415 110.146L206.631 111.764L378.019 210.717L549.406 111.764L546.623 110.146L378.019 207.502Z" fill="white"/>
<path d="M523.707 151.056V161.111L403.738 230.374V220.34L523.707 151.056Z" fill="#453C9E"/>
<path opacity="0.51" d="M206.631 111.764V167.843L378.019 266.796V210.717L206.631 111.764Z" fill="#453C9E"/>
<path d="M327.98 207.739L296.952 189.808V193.52L327.98 211.429V207.739Z" fill="#FCA311"/>
<path d="M292.484 187.262L284.069 182.407V186.118L292.463 190.973L292.484 187.262Z" fill="#FCA311"/>
<path d="M253.085 164.52L235.866 154.595V158.285L253.085 168.232V164.52Z" fill="#FCA311"/>
<path d="M268.772 173.582L256.343 166.397V170.108L268.772 177.293V173.582Z" fill="#FCA311"/>
<path d="M280.444 180.336L272.05 175.481L272.029 179.171L280.444 184.025V180.336Z" fill="#FCA311"/>
<path d="M378.192 64.5099L372.754 61.3812L378.192 58.2309L383.651 61.3812L378.192 64.5099Z" fill="#FCA311"/>
<path opacity="0.1" d="M389.086 70.8108L383.648 67.6605L389.086 64.5102L394.523 67.6605L389.086 70.8108Z" fill="#FCA311"/>
<path opacity="0.4" d="M399.963 77.0895L394.526 73.9393L399.963 70.8106L405.401 73.9393L399.963 77.0895Z" fill="#FCA311"/>
<path d="M410.857 83.3688L405.398 80.2402L410.857 77.0899L416.295 80.2402L410.857 83.3688Z" fill="#FCA311"/>
<path opacity="0.4" d="M421.734 89.6687L416.297 86.5184L421.734 83.3681L427.172 86.5184L421.734 89.6687Z" fill="#FCA311"/>
<path d="M432.628 95.9474L427.169 92.7972L432.628 89.6685L438.066 92.7972L432.628 95.9474Z" fill="#FCA311"/>
<path d="M443.505 102.227L438.068 99.0765L443.505 95.9478L448.943 99.0765L443.505 102.227Z" fill="#FCA311"/>
<path d="M454.378 108.506L448.94 105.377L454.378 102.227L459.837 105.377L454.378 108.506Z" fill="#FCA311"/>
<path opacity="0.1" d="M465.276 114.806L459.839 111.656L465.276 108.505L470.713 111.656L465.276 114.806Z" fill="#FCA311"/>
<path d="M367.273 70.8324L361.814 67.6821L367.273 64.5534L372.711 67.6821L367.273 70.8324Z" fill="#FCA311"/>
<path d="M378.146 77.1106L372.708 73.9819L378.146 70.8317L383.583 73.9819L378.146 77.1106Z" fill="#FCA311"/>
<path d="M389.044 83.4115L383.585 80.2612L389.044 77.111L394.482 80.2612L389.044 83.4115Z" fill="#FCA311"/>
<path opacity="0.8" d="M399.917 89.6903L394.479 86.54L399.917 83.4113L405.354 86.54L399.917 89.6903Z" fill="#FCA311"/>
<path d="M410.815 95.9696L405.356 92.8193L410.815 89.6906L416.253 92.8193L410.815 95.9696Z" fill="#FCA311"/>
<path d="M421.692 102.249L416.254 99.1202L421.692 95.9699L427.129 99.1202L421.692 102.249Z" fill="#FCA311"/>
<path opacity="0.8" d="M432.586 108.549L427.127 105.398L432.586 102.248L438.024 105.398L432.586 108.549Z" fill="url(#paint12_radial_0_1256)"/>
<path d="M443.463 114.827L438.025 111.677L443.463 108.549L448.9 111.677L443.463 114.827Z" fill="#FCA311"/>
<path opacity="0.8" d="M454.357 121.107L448.898 117.956L454.357 114.828L459.795 117.956L454.357 121.107Z" fill="#FCA311"/>
<path d="M356.332 77.1327L350.895 74.0041L356.332 70.8538L361.791 74.0041L356.332 77.1327Z" fill="#FCA311"/>
<path opacity="0.8" d="M367.231 83.4336L361.793 80.2833L367.231 77.1331L372.668 80.2833L367.231 83.4336Z" fill="#FCA311"/>
<path d="M378.103 89.7124L372.666 86.5621L378.103 83.4334L383.541 86.5621L378.103 89.7124Z" fill="#FCA311"/>
<path opacity="0.1" d="M389.002 95.9906L383.543 92.8404L389.002 89.7117L394.44 92.8619L389.002 95.9906Z" fill="#FCA311"/>
<path opacity="0.4" d="M399.874 102.27L394.437 99.1412L399.874 95.991L405.312 99.1412L399.874 102.27Z" fill="#FCA311"/>
<path opacity="0.4" d="M410.773 108.571L405.314 105.421L410.773 102.27L416.211 105.421L410.773 108.571Z" fill="#FCA311"/>
<path d="M421.645 114.85L416.208 111.699L421.645 108.571L427.083 111.699L421.645 114.85Z" fill="#FCA311"/>
<path d="M432.523 121.129L427.085 118L432.523 114.85L437.982 118L432.523 121.129Z" fill="#FCA311"/>
<path d="M443.416 127.407L437.979 124.278L443.416 121.128L448.854 124.278L443.416 127.407Z" fill="#FCA311"/>
<path opacity="0.4" d="M345.414 83.4542L339.955 80.3039L345.414 77.1752L350.851 80.3039L345.414 83.4542Z" fill="#FCA311"/>
<path opacity="0.4" d="M356.29 89.7335L350.853 86.5832L356.29 83.4545L361.728 86.5832L356.29 89.7335Z" fill="#FCA311"/>
<path opacity="0.1" d="M367.185 96.0128L361.726 92.8841L367.185 89.7338L372.622 92.8841L367.185 96.0128Z" fill="#FCA311"/>
<path d="M378.061 102.314L372.624 99.1634L378.061 96.0131L383.499 99.1634L378.061 102.314Z" fill="#FCA311"/>
<path d="M388.956 108.592L383.497 105.442L388.956 102.313L394.393 105.442L388.956 108.592Z" fill="#FCA311"/>
<path opacity="0.8" d="M399.832 114.871L394.395 111.72L399.832 108.592L405.27 111.72L399.832 114.871Z" fill="#FCA311"/>
<path opacity="0.4" d="M410.727 121.15L405.268 118.021L410.727 114.871L416.164 118.021L410.727 121.15Z" fill="#FCA311"/>
<path d="M421.603 127.451L416.166 124.301L421.603 121.15L427.041 124.301L421.603 127.451Z" fill="#FCA311"/>
<path d="M432.48 133.73L427.043 130.579L432.48 127.451L437.939 130.579L432.48 133.73Z" fill="#FCA311"/>
<path opacity="0.8" d="M334.477 89.7556L329.04 86.6269L334.477 83.4766L339.915 86.6269L334.477 89.7556Z" fill="#FCA311"/>
<path d="M345.372 96.0554L339.913 92.9051L345.372 89.7549L350.809 92.9051L345.372 96.0554Z" fill="#FCA311"/>
<path d="M356.248 102.334L350.811 99.1839L356.248 96.0552L361.686 99.1839L356.248 102.334Z" fill="#FCA311"/>
<path d="M367.143 108.613L361.684 105.463L367.143 102.335L372.58 105.463L367.143 108.613Z" fill="#FCA311"/>
<path opacity="0.8" d="M378.019 114.893L372.582 111.764L378.019 108.614L383.457 111.764L378.019 114.893Z" fill="#FCA311"/>
<path opacity="0.8" d="M388.892 121.194L383.455 118.043L388.892 114.893L394.351 118.043L388.892 121.194Z" fill="#FCA311"/>
<path d="M399.79 127.472L394.353 124.322L399.79 121.193L405.228 124.322L399.79 127.472Z" fill="#FCA311"/>
<path d="M410.685 133.751L405.226 130.6L410.685 127.472L416.122 130.6L410.685 133.751Z" fill="#FCA311"/>
<path d="M421.561 140.03L416.124 136.901L421.561 133.751L426.999 136.901L421.561 140.03Z" fill="#FCA311"/>
<path d="M323.558 96.077L318.099 92.9268L323.558 89.7981L328.996 92.9268L323.558 96.077Z" fill="#FCA311"/>
<path d="M334.431 102.356L328.993 99.2061L334.431 96.0774L339.868 99.2061L334.431 102.356Z" fill="#FCA311"/>
<path opacity="0.4" d="M345.329 108.636L339.87 105.507L345.329 102.357L350.767 105.507L345.329 108.636Z" fill="#FCA311"/>
<path opacity="0.8" d="M356.202 114.935L350.764 111.785L356.202 108.635L361.639 111.785L356.202 114.935Z" fill="#FCA311"/>
<path opacity="0.1" d="M367.1 121.214L361.641 118.064L367.1 114.935L372.538 118.064L367.1 121.214Z" fill="#FCA311"/>
<path d="M377.973 127.493L372.535 124.343L377.973 121.215L383.41 124.343L377.973 127.493Z" fill="#FCA311"/>
<path d="M388.85 133.773L383.413 130.644L388.85 127.494L394.309 130.644L388.85 133.773Z" fill="#FCA311"/>
<path opacity="0.8" d="M399.748 140.074L394.311 136.923L399.748 133.773L405.185 136.923L399.748 140.074Z" fill="#FCA311"/>
<path d="M410.621 146.352L405.184 143.202L410.621 140.073L416.08 143.202L410.621 146.352Z" fill="#FCA311"/>
<path d="M312.618 102.377L307.18 99.2271L312.618 96.0984L318.055 99.2271L312.618 102.377Z" fill="#FCA311"/>
<path d="M323.512 108.657L318.053 105.528L323.512 102.378L328.949 105.528L323.512 108.657Z" fill="#FCA311"/>
<path opacity="0.4" d="M334.389 114.958L328.951 111.807L334.389 108.657L339.826 111.807L334.389 114.958Z" fill="#FCA311"/>
<path d="M345.287 121.236L339.828 118.086L345.287 114.957L350.725 118.086L345.287 121.236Z" fill="#FCA311"/>
<path d="M356.16 127.516L350.722 124.365L356.16 121.237L361.597 124.365L356.16 127.516Z" fill="#FCA311"/>
<path opacity="0.1" d="M367.058 133.794L361.599 130.665L367.058 127.515L372.496 130.665L367.058 133.794Z" fill="#FCA311"/>
<path opacity="0.4" d="M377.931 140.095L372.493 136.944L377.931 133.794L383.368 136.944L377.931 140.095Z" fill="#FCA311"/>
<path d="M388.829 146.374L383.37 143.223L388.829 140.095L394.267 143.223L388.829 146.374Z" fill="#FCA311"/>
<path opacity="0.1" d="M399.702 152.653L394.264 149.524L399.702 146.374L405.139 149.524L399.702 152.653Z" fill="#FCA311"/>
<path d="M301.699 108.7L296.24 105.55L301.699 102.4L307.136 105.55L301.699 108.7Z" fill="#FCA311"/>
<path opacity="0.4" d="M312.575 114.979L307.138 111.829L312.575 108.7L318.013 111.829L312.575 114.979Z" fill="#FCA311"/>
<path d="M323.47 121.257L318.011 118.107L323.47 114.978L328.907 118.107L323.47 121.257Z" fill="#FCA311"/>
<path d="M334.347 127.537L328.909 124.408L334.347 121.258L339.784 124.408L334.347 127.537Z" fill="#FCA311"/>
<path d="M345.219 133.838L339.782 130.687L345.219 127.537L350.678 130.687L345.219 133.838Z" fill="#FCA311"/>
<path d="M356.118 140.116L350.68 136.966L356.118 133.837L361.555 136.966L356.118 140.116Z" fill="#FCA311"/>
<path d="M366.99 146.396L361.553 143.267L366.99 140.117L372.449 143.267L366.99 146.396Z" fill="#FCA311"/>
<path opacity="0.4" d="M377.889 152.674L372.451 149.545L377.889 146.395L383.326 149.545L377.889 152.674Z" fill="#FCA311"/>
<path d="M388.761 158.975L383.324 155.824L388.761 152.674L394.22 155.824L388.761 158.975Z" fill="#FCA311"/>
<path d="M290.758 115L285.321 111.85L290.758 108.721L296.196 111.85L290.758 115Z" fill="#FCA311"/>
<path opacity="0.1" d="M301.657 121.28L296.198 118.151L301.657 115.001L307.094 118.151L301.657 121.28Z" fill="#FCA311"/>
<path opacity="0.8" d="M312.529 127.58L307.092 124.43L312.529 121.28L317.967 124.43L312.529 127.58Z" fill="#FCA311"/>
<path d="M323.428 133.859L317.969 130.709L323.428 127.58L328.865 130.709L323.428 133.859Z" fill="#FCA311"/>
<path d="M334.304 140.137L328.867 136.987L334.304 133.858L339.742 136.987L334.304 140.137Z" fill="#FCA311"/>
<path d="M345.199 146.417L339.74 143.288L345.199 140.138L350.636 143.288L345.199 146.417Z" fill="#FCA311"/>
<path opacity="0.4" d="M356.075 152.696L350.638 149.567L356.075 146.417L361.513 149.567L356.075 152.696Z" fill="#FCA311"/>
<path opacity="0.8" d="M366.948 158.997L361.511 155.847L366.948 152.696L372.407 155.847L366.948 158.997Z" fill="#FCA311"/>
<path d="M377.846 165.276L372.409 162.125L377.846 158.997L383.284 162.125L377.846 165.276Z" fill="#FCA311"/>
<g style="mix-blend-mode:lighten">
<path d="M562.524 512.624C559.554 512.629 556.636 511.847 554.066 510.359L456.688 454.129C455.949 453.7 455.335 453.085 454.909 452.344C454.483 451.604 454.258 450.765 454.258 449.91C454.258 449.056 454.483 448.217 454.909 447.476C455.335 446.736 455.949 446.121 456.688 445.692L632.973 343.956C633.117 343.87 633.281 343.825 633.448 343.825C633.615 343.825 633.779 343.87 633.923 343.956L739.284 404.782C740.023 405.21 740.637 405.826 741.063 406.566C741.49 407.306 741.714 408.146 741.714 409C741.714 409.854 741.49 410.694 741.063 411.434C740.637 412.174 740.023 412.79 739.284 413.218L570.982 510.316C568.415 511.816 565.497 512.612 562.524 512.624ZM633.383 345.898L457.637 447.31C457.189 447.57 456.818 447.943 456.559 448.392C456.301 448.841 456.165 449.349 456.165 449.867C456.165 450.385 456.301 450.894 456.559 451.343C456.818 451.791 457.189 452.164 457.637 452.424L555.037 508.654C557.323 509.938 559.902 510.612 562.524 510.612C565.146 510.612 567.725 509.938 570.011 508.654L738.313 411.557C738.765 411.303 739.142 410.934 739.404 410.486C739.665 410.039 739.803 409.529 739.802 409.011C739.804 408.489 739.668 407.976 739.406 407.525C739.144 407.074 738.767 406.7 738.313 406.443L633.383 345.898Z" fill="#FCA311"/>
</g>
<path d="M633.598 304.707L610.165 165.643L612.042 164.844L609.237 163.161C608.9 162.98 608.518 162.898 608.136 162.925C607.754 162.952 607.388 163.086 607.079 163.312L419.703 271.479C418.912 271.988 418.27 272.697 417.842 273.534C417.413 274.372 417.214 275.308 417.265 276.247L441 416.499C441.031 416.801 441.138 417.09 441.312 417.339C441.486 417.588 441.72 417.789 441.992 417.923L444.754 419.52L445.229 416.93H445.078L631.267 309.433C632.029 308.912 632.643 308.203 633.051 307.375C633.46 306.548 633.648 305.629 633.598 304.707Z" fill="url(#paint13_linear_0_1256)"/>
<path d="M420.742 275.297L417.678 273.916C417.327 274.64 417.185 275.447 417.268 276.247L441.003 416.498C441.034 416.8 441.141 417.089 441.315 417.338C441.489 417.588 441.723 417.788 441.995 417.922L444.757 419.519L445.232 416.93H445.081L454.51 411.492L420.742 275.297Z" fill="url(#paint14_linear_0_1256)"/>
<path d="M634.096 311.18L446.784 419.325C445.317 420.166 444.087 419.692 443.828 418.181L420.201 277.93C420.155 276.991 420.356 276.057 420.784 275.22C421.212 274.383 421.852 273.673 422.639 273.161L609.972 165.016C611.418 164.175 612.648 164.671 612.907 166.16L636.534 306.412C636.594 307.352 636.399 308.292 635.969 309.131C635.54 309.97 634.893 310.678 634.096 311.18Z" fill="#24126A"/>
<g opacity="0.51">
<path d="M607.512 173.949L426.954 278.21L449.329 410.219L629.801 306.044L607.512 173.949Z" fill="#453C9E"/>
</g>
<path d="M751.863 377.443L741.635 382.795L639.122 323.608C638.063 323.128 636.906 322.903 635.744 322.952C634.582 323 633.448 323.321 632.433 323.889L455.63 425.949C453.947 425.021 446.222 421.31 446.222 421.31L449.955 431.063C450.148 431.57 450.526 431.986 451.012 432.228L558.898 494.564C559.958 495.04 561.115 495.262 562.276 495.213C563.437 495.165 564.57 494.846 565.587 494.284L746.511 389.829C747.195 389.485 747.737 388.912 748.043 388.21L751.863 377.443Z" fill="url(#paint15_linear_0_1256)"/>
<path d="M750.268 379.127L564.856 486.193C563.813 486.77 562.649 487.096 561.458 487.145C560.267 487.194 559.081 486.964 557.994 486.473L447.411 422.583C445.663 421.569 445.879 419.8 447.907 418.634L633.32 311.569C634.363 310.991 635.526 310.665 636.718 310.616C637.909 310.568 639.095 310.798 640.182 311.288L750.829 375.178C752.534 376.192 752.296 378.069 750.268 379.127Z" fill="url(#paint16_linear_0_1256)"/>
<path d="M750.269 378.069L564.856 485.113C563.813 485.691 562.65 486.017 561.459 486.066C560.268 486.114 559.081 485.884 557.995 485.394L447.412 421.526C446.922 421.262 446.54 420.834 446.333 420.317C446.202 420.761 446.239 421.238 446.438 421.657C446.637 422.075 446.984 422.405 447.412 422.583L558.06 486.473C559.146 486.963 560.332 487.193 561.523 487.145C562.715 487.096 563.878 486.77 564.921 486.192L750.334 379.126C751.715 378.35 752.232 377.292 751.909 376.364C751.597 377.119 751.011 377.728 750.269 378.069Z" fill="white"/>
<path d="M508.927 463.019V460.991C508.927 460.796 509.035 460.71 509.186 460.796L516.349 464.939C516.432 464.994 516.501 465.067 516.549 465.154C516.598 465.24 516.626 465.337 516.63 465.436V467.464C516.63 467.658 516.5 467.744 516.349 467.658L509.186 463.537C509.105 463.476 509.04 463.398 508.995 463.308C508.95 463.218 508.927 463.119 508.927 463.019Z" fill="#2842A2"/>
<path d="M519.652 469.211V467.182C519.652 466.988 519.652 466.902 519.911 466.988L527.075 471.131C527.157 471.186 527.226 471.259 527.275 471.345C527.323 471.432 527.351 471.528 527.355 471.627V473.656C527.355 473.85 527.226 473.936 527.075 473.85L519.911 469.729C519.831 469.668 519.765 469.59 519.72 469.5C519.675 469.41 519.652 469.311 519.652 469.211Z" fill="#2842A2"/>
<path d="M476.193 416.606L630.275 327.643C630.779 327.347 631.353 327.191 631.937 327.191C632.521 327.191 633.094 327.347 633.598 327.643L688.469 359.383C688.675 359.478 688.85 359.63 688.973 359.821C689.096 360.012 689.161 360.235 689.161 360.462C689.161 360.689 689.096 360.912 688.973 361.103C688.85 361.294 688.675 361.446 688.469 361.541L534.451 450.352C533.947 450.648 533.374 450.804 532.79 450.804C532.205 450.804 531.632 450.648 531.128 450.352L476.193 418.656C476.014 418.551 475.865 418.401 475.762 418.222C475.659 418.042 475.604 417.838 475.604 417.631C475.604 417.423 475.659 417.22 475.762 417.04C475.865 416.86 476.014 416.71 476.193 416.606Z" fill="#8389E6"/>
<path d="M476.196 418.656L476.757 418.98L630.278 330.319C630.785 330.034 631.357 329.884 631.939 329.884C632.522 329.884 633.094 330.034 633.601 330.319L687.911 361.757L688.472 361.433C688.678 361.339 688.853 361.187 688.976 360.995C689.099 360.804 689.164 360.582 689.164 360.354C689.164 360.127 689.099 359.905 688.976 359.714C688.853 359.522 688.678 359.37 688.472 359.276L633.601 327.536C633.097 327.24 632.524 327.084 631.939 327.084C631.355 327.084 630.782 327.24 630.278 327.536L476.196 416.498C475.989 416.593 475.814 416.745 475.691 416.936C475.568 417.127 475.503 417.35 475.503 417.577C475.503 417.804 475.568 418.027 475.691 418.218C475.814 418.409 475.989 418.561 476.196 418.656Z" fill="#424BA0"/>
<path d="M637.743 335.671L503.9 412.938L497.944 409.508L631.787 332.24L637.743 335.671Z" fill="#24126A"/>
<path d="M652.327 344.107L526.791 416.585L520.836 413.154L646.372 340.655L652.327 344.107Z" fill="#24126A"/>
<path d="M661.822 349.587L514.018 434.925L508.063 431.494L655.888 346.156L661.822 349.587Z" fill="#24126A"/>
<path d="M671.337 355.068L523.534 440.406L517.579 436.975L665.382 351.637L671.337 355.068Z" fill="#24126A"/>
<path d="M680.832 360.549L533.029 445.908L527.073 442.456L674.877 357.118L680.832 360.549Z" fill="#24126A"/>
<path d="M495.809 417.621L489.853 421.051L483.898 417.621L489.853 414.19L495.809 417.621Z" fill="#24126A"/>
<path d="M516.803 422.346L504.439 429.488L498.484 426.036L510.847 418.915L516.803 422.346Z" fill="#24126A"/>
<path d="M636.209 438.14L677.767 414.146C678.117 414.019 678.42 413.788 678.634 413.483C678.848 413.178 678.963 412.814 678.963 412.441C678.963 412.069 678.848 411.705 678.634 411.4C678.42 411.095 678.117 410.864 677.767 410.737L649.35 394.338C648.438 393.872 647.428 393.629 646.404 393.629C645.38 393.629 644.371 393.872 643.459 394.338L601.923 418.332C601.57 418.453 601.264 418.682 601.047 418.985C600.83 419.289 600.714 419.653 600.714 420.026C600.714 420.399 600.83 420.763 601.047 421.066C601.264 421.37 601.57 421.598 601.923 421.72L630.34 438.14C631.249 438.602 632.255 438.843 633.275 438.843C634.295 438.843 635.3 438.602 636.209 438.14Z" fill="url(#paint17_linear_0_1256)"/>
<path d="M601.925 419.713L643.461 395.741C644.373 395.275 645.382 395.032 646.406 395.032C647.43 395.032 648.439 395.275 649.351 395.741L677.768 412.139C678.195 412.365 678.547 412.71 678.782 413.132C679.214 412.312 678.782 411.406 677.768 410.737L649.351 394.338C648.439 393.872 647.43 393.629 646.406 393.629C645.382 393.629 644.373 393.872 643.461 394.338L601.925 418.332C600.803 418.979 600.479 419.907 600.911 420.727C601.143 420.298 601.496 419.946 601.925 419.713Z" fill="#424BA0"/>
<g opacity="0.11">
<mask id="mask0_0_1256" style="mask-type:luminance" maskUnits="userSpaceOnUse" x="426" y="173" width="204" height="238">
<path d="M607.51 173.971L426.953 278.21L449.35 410.219L629.8 306.045L607.51 173.971Z" fill="white"/>
</mask>
<g mask="url(#mask0_0_1256)">
<path d="M633.449 311.352L448.015 418.397C446.979 418.982 445.82 419.315 444.631 419.367C443.442 419.42 442.258 419.191 441.175 418.699L330.505 354.809C328.758 353.795 328.973 352.025 331.002 350.839L516.457 243.794C517.5 243.217 518.664 242.891 519.855 242.842C521.046 242.793 522.232 243.023 523.319 243.514L633.967 307.382C635.693 308.396 635.477 310.187 633.449 311.352Z" fill="url(#paint18_linear_0_1256)"/>
<path d="M447.411 330.599L488.947 306.627C489.307 306.51 489.622 306.283 489.845 305.976C490.068 305.67 490.188 305.301 490.188 304.922C490.188 304.543 490.068 304.174 489.845 303.868C489.622 303.561 489.307 303.334 488.947 303.217L460.551 286.819C459.639 286.353 458.63 286.11 457.606 286.11C456.582 286.11 455.572 286.353 454.66 286.819L413.189 310.748C412.836 310.869 412.53 311.097 412.313 311.401C412.097 311.705 411.98 312.069 411.98 312.442C411.98 312.815 412.097 313.179 412.313 313.482C412.53 313.786 412.836 314.014 413.189 314.135L441.585 330.599C442.488 331.054 443.486 331.291 444.498 331.291C445.509 331.291 446.507 331.054 447.411 330.599Z" fill="url(#paint19_linear_0_1256)"/>
<path d="M413.191 312.129L454.727 288.157C455.639 287.691 456.648 287.448 457.672 287.448C458.696 287.448 459.705 287.691 460.617 288.157L489.013 304.556C489.45 304.775 489.811 305.121 490.048 305.548C490.48 304.728 490.048 303.8 489.013 303.153L460.617 286.755C459.705 286.289 458.696 286.046 457.672 286.046C456.648 286.046 455.639 286.289 454.727 286.755L413.191 310.748C412.047 311.396 411.723 312.323 412.155 313.143C412.397 312.714 412.756 312.362 413.191 312.129Z" fill="#424BA0"/>
<path d="M394.915 368.036L548.997 279.073C549.501 278.777 550.074 278.621 550.659 278.621C551.243 278.621 551.816 278.777 552.32 279.073L607.191 310.813C607.37 310.918 607.518 311.067 607.622 311.247C607.725 311.427 607.779 311.631 607.779 311.838C607.779 312.045 607.725 312.249 607.622 312.429C607.518 312.609 607.37 312.758 607.191 312.863L453.173 401.804C452.669 402.1 452.096 402.256 451.512 402.256C450.927 402.256 450.354 402.1 449.85 401.804L394.915 370.086C394.736 369.981 394.587 369.831 394.484 369.652C394.38 369.472 394.326 369.268 394.326 369.061C394.326 368.853 394.38 368.65 394.484 368.47C394.587 368.29 394.736 368.14 394.915 368.036Z" fill="#8389E6"/>
<path d="M394.915 370.086L395.476 370.409L548.997 281.749C549.504 281.463 550.077 281.313 550.659 281.313C551.241 281.313 551.813 281.463 552.32 281.749L606.63 313.187L607.191 312.863C607.37 312.758 607.518 312.609 607.622 312.429C607.725 312.249 607.779 312.045 607.779 311.838C607.779 311.631 607.725 311.427 607.622 311.247C607.518 311.067 607.37 310.918 607.191 310.813L552.32 279.073C551.816 278.777 551.243 278.621 550.659 278.621C550.074 278.621 549.501 278.777 548.997 279.073L394.915 368.036C394.736 368.14 394.587 368.29 394.484 368.47C394.38 368.65 394.326 368.853 394.326 369.061C394.326 369.268 394.38 369.472 394.484 369.652C394.587 369.831 394.736 369.981 394.915 370.086Z" fill="#424BA0"/>
<path d="M592.839 308.633L458.586 386.138L463.915 389.224L598.147 311.719L592.839 308.633Z" fill="#24126A"/>
<path d="M578.687 300.478L451.101 374.142L456.409 377.206L583.995 303.541L578.687 300.478Z" fill="#24126A"/>
<path d="M441.561 379.644L429.65 386.527L434.958 389.591L446.891 382.708L441.561 379.644Z" fill="#24126A"/>
<path d="M452.092 389.893L443.785 394.683L449.115 397.769L457.4 392.979L452.092 389.893Z" fill="#24126A"/>
<path d="M569.817 295.363L420.783 381.413L426.113 384.477L575.146 298.427L569.817 295.363Z" fill="#24126A"/>
<path d="M560.95 290.249L411.917 376.278L417.246 379.363L566.28 293.313L560.95 290.249Z" fill="#24126A"/>
<path d="M552.104 285.136L403.071 371.165L408.379 374.25L557.412 288.2L552.104 285.136Z" fill="#24126A"/>
</g>
</g>
<path d="M494.944 359.88L509.551 351.443L509.983 353.989L495.375 362.426L494.944 359.88Z" fill="#FCA311"/>
<path d="M511.906 350.105L519.868 345.487L520.3 348.034L512.338 352.629L511.906 350.105Z" fill="#FCA311"/>
<path d="M532.253 338.346L538.014 335.023L538.445 337.548L532.684 340.892L532.253 338.346Z" fill="#FCA311"/>
<path d="M528.043 340.784L530.006 339.64L530.438 342.165L528.474 343.308L528.043 340.784Z" fill="#FCA311"/>
<path d="M522.24 344.128L525.821 342.057L526.253 344.603L522.671 346.675L522.24 344.128Z" fill="#FCA311"/>
<path d="M506.512 340.482L512.251 337.159L512.683 339.683L506.922 343.028L506.512 340.482Z" fill="#FCA311"/>
<path d="M492.98 348.293L504.265 341.777L504.696 344.301L493.411 350.839L492.98 348.293Z" fill="#FCA311"/>
<path d="M509.163 307.188L520.447 300.672L520.879 303.196L509.594 309.712L509.163 307.188Z" fill="#FCA311"/>
<path d="M503.36 310.533L506.92 308.483L507.351 311.007L503.791 313.079L503.36 310.533Z" fill="#FCA311"/>
<path d="M511.042 318.797L522.327 312.259L522.759 314.805L511.474 321.321L511.042 318.797Z" fill="#FCA311"/>
<path d="M505.235 322.141L508.817 320.07L509.248 322.616L505.666 324.688L505.235 322.141Z" fill="#FCA311"/>
<path d="M500.833 257.108L479.58 269.386L479.148 266.861L500.402 254.562L500.833 257.108Z" fill="#FCA311"/>
<path d="M508.322 252.771L503.057 255.813L502.647 253.267L507.891 250.224L508.322 252.771Z" fill="#FCA311"/>
<path d="M545.674 250.31L524.42 262.588L523.989 260.063L545.264 247.764L545.674 250.31Z" fill="#FCA311"/>
<path d="M553.18 245.974L547.915 249.016L547.483 246.47L552.748 243.428L553.18 245.974Z" fill="#FCA311"/>
<path d="M486.315 271.845L480.554 275.189L480.122 272.643L485.883 269.32L486.315 271.845Z" fill="#FCA311"/>
<path d="M521.356 264.336L515.595 267.659L515.164 265.134L520.925 261.79L521.356 264.336Z" fill="#FCA311"/>
<path d="M499.82 264.034L488.557 270.572L488.125 268.026L499.41 261.509L499.82 264.034Z" fill="#FCA311"/>
<path d="M505.624 260.689L502.063 262.739L501.632 260.215L505.214 258.143L505.624 260.689Z" fill="#FCA311"/>
<path d="M519.261 252.836L507.976 259.352L507.544 256.806L518.829 250.29L519.261 252.836Z" fill="#FCA311"/>
<path d="M525.065 249.469L521.483 251.541L521.051 248.995L524.633 246.945L525.065 249.469Z" fill="#FCA311"/>
<path d="M520.383 258.532L514.622 261.877L514.19 259.33L519.951 256.008L520.383 258.532Z" fill="#FCA311"/>
<path d="M533.893 250.721L522.608 257.259L522.176 254.713L533.461 248.196L533.893 250.721Z" fill="#FCA311"/>
<path d="M539.696 247.376L536.114 249.426L535.704 246.902L539.264 244.83L539.696 247.376Z" fill="#FCA311"/>
<path d="M493.325 274.175L481.522 280.972L481.112 278.447L492.893 271.629L493.325 274.175Z" fill="#FCA311"/>
<path d="M504.071 267.939L495.548 272.881L495.116 270.334L503.639 265.415L504.071 267.939Z" fill="#FCA311"/>
<path d="M512.055 263.322L506.294 266.666L505.884 264.12L511.623 260.797L512.055 263.322Z" fill="#FCA311"/>
<path d="M567.918 237.472L556.137 244.291L555.705 241.744L567.486 234.948L567.918 237.472Z" fill="#FCA311"/>
<path d="M578.663 231.258L570.14 236.178L569.73 233.653L578.253 228.734L578.663 231.258Z" fill="#FCA311"/>
<path d="M586.669 226.64L580.908 229.963L580.477 227.439L586.238 224.116L586.669 226.64Z" fill="#FCA311"/>
<path d="M563.321 314.05L575.102 307.231L575.533 309.777L563.752 316.574L563.321 314.05Z" fill="#FCA311"/>
<path d="M552.557 320.264L561.08 315.345L561.512 317.869L552.989 322.789L552.557 320.264Z" fill="#FCA311"/>
<path d="M544.571 324.882L550.332 321.559L550.764 324.083L545.003 327.428L544.571 324.882Z" fill="#FCA311"/>
<path d="M559.397 322.681L571.178 315.884L571.61 318.409L559.829 325.227L559.397 322.681Z" fill="#FCA311"/>
<path d="M548.65 328.917L557.173 323.976L557.605 326.522L549.082 331.441L548.65 328.917Z" fill="#FCA311"/>
<path d="M540.665 333.534L546.426 330.19L546.836 332.736L541.096 336.059L540.665 333.534Z" fill="#FCA311"/>
<path d="M511.818 311.979L515.809 309.67L516.241 312.216L512.249 314.503L511.818 311.979Z" fill="#FCA311"/>
<path d="M504.329 316.316L509.594 313.273L510.025 315.798L504.76 318.84L504.329 316.316Z" fill="#FCA311"/>
<path d="M494.362 279.914L482.58 286.733L482.149 284.208L493.952 277.39L494.362 279.914Z" fill="#FCA311"/>
<path d="M505.129 273.7L496.606 278.642L496.174 276.095L504.697 271.176L505.129 273.7Z" fill="#FCA311"/>
<path d="M513.113 269.083L507.352 272.427L506.921 269.881L512.682 266.558L513.113 269.083Z" fill="#FCA311"/>
<path d="M487.545 290.228L483.575 292.537L483.144 289.991L487.114 287.682L487.545 290.228Z" fill="#FCA311"/>
<path d="M495.03 285.891L489.787 288.934L489.355 286.409L494.62 283.367L495.03 285.891Z" fill="#FCA311"/>
<path d="M505.756 279.721L497.276 284.619L496.844 282.073L505.324 277.175L505.756 279.721Z" fill="#FCA311"/>
<path d="M517.233 327.945L521.225 325.658L521.656 328.183L517.664 330.491L517.233 327.945Z" fill="#FCA311"/>
<path d="M509.749 332.283L515.013 329.24L515.445 331.786L510.18 334.829L509.749 332.283Z" fill="#FCA311"/>
<path d="M499.044 338.475L507.502 333.577L507.934 336.101L499.476 340.999L499.044 338.475Z" fill="#FCA311"/>
<path d="M523.297 318.538L531.777 313.64L532.209 316.186L523.729 321.084L523.297 318.538Z" fill="#FCA311"/>
<path d="M509.445 326.09L520.859 319.487L521.291 322.033L509.877 328.636L509.445 326.09Z" fill="#FCA311"/>
<path d="M503.642 329.456L507.202 327.385L507.634 329.931L504.073 332.002L503.642 329.456Z" fill="#FCA311"/>
<path d="M498.05 332.671L501.631 330.622L502.063 333.146L498.481 335.217L498.05 332.671Z" fill="#FCA311"/>
<path d="M498.829 299.939L510.114 293.401L510.546 295.947L499.261 302.463L498.829 299.939Z" fill="#FCA311"/>
<path d="M493.026 303.282L496.586 301.211L497.018 303.757L493.458 305.829L493.026 303.282Z" fill="#FCA311"/>
<path d="M499.605 293.12L503.575 290.811L504.006 293.357L500.036 295.666L499.605 293.12Z" fill="#FCA311"/>
<path d="M513.651 297.759L517.643 295.472L518.053 297.997L514.082 300.306L513.651 297.759Z" fill="#FCA311"/>
<path d="M519.328 294.479L528.886 288.977L529.318 291.502L519.759 297.025L519.328 294.479Z" fill="#FCA311"/>
<path d="M530.567 288.006L536.242 284.705L536.673 287.251L530.998 290.531L530.567 288.006Z" fill="#FCA311"/>
<path d="M492.116 297.457L497.359 294.414L497.791 296.939L492.547 299.981L492.116 297.457Z" fill="#FCA311"/>
<path d="M491.623 291.502L495.593 289.193L496.025 291.739L492.054 294.026L491.623 291.502Z" fill="#FCA311"/>
<path d="M484.113 295.817L489.378 292.796L489.809 295.321L484.544 298.363L484.113 295.817Z" fill="#FCA311"/>
<path d="M507.89 301.104L511.45 299.032L511.882 301.557L508.3 303.628L507.89 301.104Z" fill="#FCA311"/>
<path d="M502.302 304.318L505.884 302.247L506.315 304.793L502.733 306.864L502.302 304.318Z" fill="#FCA311"/>
<path d="M529.771 333.448L541.962 326.392L542.372 328.939L530.18 335.973L529.771 333.448Z" fill="#FCA311"/>
<path d="M516.112 341.324L527.526 334.721L527.958 337.267L516.544 343.87L516.112 341.324Z" fill="#FCA311"/>
<path d="M510.309 344.689L513.869 342.617L514.301 345.164L510.74 347.213L510.309 344.689Z" fill="#FCA311"/>
<path d="M504.721 347.904L508.302 345.833L508.734 348.379L505.152 350.451L504.721 347.904Z" fill="#FCA311"/>
<path d="M501.677 349.673L493.974 354.118L494.406 356.664L502.109 352.198L501.677 349.673Z" fill="#FCA311"/>
<g opacity="0.8">
<path d="M193.511 512.969C190.482 512.971 187.505 512.174 184.881 510.661L16.5787 413.563C15.7911 413.101 15.1381 412.44 14.6844 411.647C14.2307 410.854 13.9921 409.957 13.9921 409.043C13.9921 408.129 14.2307 407.232 14.6844 406.439C15.1381 405.646 15.7911 404.985 16.5787 404.523L122.609 343.33L123.256 343.697L299.455 445.433C300.248 445.891 300.907 446.55 301.364 447.344C301.822 448.137 302.063 449.037 302.063 449.953C302.063 450.869 301.822 451.769 301.364 452.563C300.907 453.356 300.248 454.015 299.455 454.474L202.078 510.704C199.468 512.191 196.515 512.972 193.511 512.969ZM186.197 508.417C188.434 509.674 190.956 510.334 193.522 510.334C196.088 510.334 198.611 509.674 200.848 508.417L298.225 452.316C298.627 452.084 298.96 451.751 299.191 451.349C299.422 450.948 299.543 450.492 299.542 450.029C299.527 449.586 299.398 449.155 299.167 448.777C298.937 448.399 298.612 448.087 298.225 447.871L122.674 346.458H122.501L17.9597 406.874C17.5606 407.103 17.229 407.433 16.9984 407.831C16.7678 408.229 16.6463 408.68 16.6463 409.14C16.6463 409.6 16.7678 410.052 16.9984 410.449C17.229 410.847 17.5606 411.177 17.9597 411.406L186.197 508.417Z" fill="url(#paint20_linear_0_1256)"/>
</g>
<path d="M122.458 304.707L145.891 165.642L143.992 164.844L146.841 163.226C147.178 163.045 147.559 162.963 147.941 162.989C148.323 163.016 148.69 163.15 148.998 163.377L336.31 271.521C337.107 272.024 337.754 272.732 338.183 273.571C338.613 274.41 338.808 275.349 338.748 276.29L315.121 416.541C315.094 416.845 314.988 417.136 314.814 417.385C314.64 417.635 314.403 417.835 314.128 417.965L311.345 419.562L310.87 416.973H311.021L124.832 309.476C124.05 308.962 123.418 308.25 123.001 307.412C122.584 306.574 122.396 305.641 122.458 304.707Z" fill="url(#paint21_linear_0_1256)"/>
<path d="M335.21 275.297L338.296 273.916C338.647 274.639 338.782 275.449 338.684 276.247L315.057 416.498C315.03 416.801 314.924 417.092 314.75 417.342C314.576 417.592 314.34 417.792 314.065 417.922L311.281 419.519L310.806 416.93H310.957L301.55 411.492L335.21 275.297Z" fill="url(#paint22_linear_0_1256)"/>
<path d="M121.94 311.18L309.316 419.238C310.762 420.08 311.992 419.605 312.251 418.095L335.986 277.843C336.039 276.904 335.841 275.967 335.412 275.129C334.984 274.291 334.34 273.582 333.548 273.075L146.215 164.93C144.769 164.089 143.539 164.585 143.28 166.074L119.545 306.325C119.474 307.275 119.659 308.226 120.081 309.079C120.502 309.933 121.144 310.659 121.94 311.18Z" fill="#24126A"/>
<g opacity="0.51">
<path d="M148.525 173.949L329.083 278.21L306.707 410.219L126.257 306.044L148.525 173.949Z" fill="#453C9E"/>
</g>
<path d="M4.19385 377.443L14.3999 382.795L116.913 323.608C117.972 323.128 119.129 322.903 120.291 322.952C121.453 323 122.587 323.321 123.602 323.889L300.405 425.949C302.11 425.021 309.813 421.31 309.813 421.31L306.08 431.063C305.892 431.567 305.523 431.982 305.044 432.228L197.115 494.586C196.055 495.061 194.899 495.284 193.738 495.235C192.577 495.186 191.443 494.868 190.426 494.305L9.39395 389.807C8.7101 389.47 8.17299 388.894 7.88356 388.189L4.19385 377.443Z" fill="url(#paint23_linear_0_1256)"/>
<path d="M5.7695 379.127L191.182 486.193C192.225 486.77 193.388 487.096 194.58 487.145C195.771 487.194 196.957 486.964 198.044 486.473L308.691 422.583C310.461 421.569 310.245 419.8 308.195 418.634L122.782 311.569C121.739 310.991 120.576 310.665 119.385 310.616C118.194 310.568 117.008 310.798 115.921 311.288L5.2732 375.178C3.52545 376.192 3.74124 378.069 5.7695 379.127Z" fill="url(#paint24_linear_0_1256)"/>
<path d="M5.76767 378.069L191.18 485.113C192.223 485.691 193.387 486.017 194.578 486.066C195.769 486.114 196.955 485.884 198.042 485.394L308.689 421.526C309.186 421.269 309.57 420.839 309.768 420.317C309.905 420.761 309.87 421.24 309.67 421.66C309.47 422.079 309.12 422.409 308.689 422.583L198.042 486.473C196.955 486.963 195.769 487.193 194.578 487.145C193.387 487.096 192.223 486.77 191.18 486.192L5.76767 379.126C4.4083 378.35 3.86885 377.292 4.19251 376.364C4.49725 377.102 5.05598 377.707 5.76767 378.069Z" fill="white"/>
<path d="M247.109 463.019V460.991C247.109 460.796 247.001 460.71 246.85 460.796L239.686 464.939C239.606 464.995 239.541 465.069 239.496 465.156C239.45 465.242 239.427 465.338 239.427 465.436V467.464C239.427 467.658 239.535 467.744 239.686 467.658L246.85 463.537C246.93 463.476 246.995 463.398 247.04 463.308C247.085 463.218 247.109 463.119 247.109 463.019Z" fill="#2842A2"/>
<path d="M236.387 469.211V467.182C236.387 466.988 236.279 466.902 236.128 466.988L228.965 471.131C228.885 471.187 228.819 471.261 228.774 471.347C228.729 471.434 228.706 471.53 228.706 471.627V473.656C228.706 473.85 228.814 473.936 228.965 473.85L236.128 469.729C236.209 469.668 236.274 469.59 236.319 469.5C236.364 469.41 236.387 469.311 236.387 469.211Z" fill="#2842A2"/>
<path d="M279.844 416.606L125.761 327.643C125.257 327.347 124.684 327.191 124.1 327.191C123.515 327.191 122.942 327.347 122.438 327.643L67.6538 359.383C67.4472 359.478 67.2721 359.63 67.1494 359.821C67.0266 360.012 66.9614 360.235 66.9614 360.462C66.9614 360.689 67.0266 360.912 67.1494 361.103C67.2721 361.294 67.4472 361.446 67.6538 361.541L221.672 450.46C222.175 450.756 222.749 450.912 223.333 450.912C223.917 450.912 224.491 450.756 224.994 450.46L279.93 418.763C280.133 418.661 280.302 418.502 280.418 418.306C280.533 418.109 280.589 417.884 280.58 417.657C280.571 417.429 280.497 417.209 280.366 417.023C280.236 416.837 280.054 416.692 279.844 416.606Z" fill="#8389E6"/>
<path d="M279.841 418.656L279.302 418.98L125.759 330.319C125.252 330.034 124.68 329.884 124.098 329.884C123.516 329.884 122.943 330.034 122.436 330.319L68.1264 361.757L67.5654 361.433C67.3588 361.339 67.1838 361.187 67.061 360.995C66.9383 360.804 66.873 360.582 66.873 360.354C66.873 360.127 66.9383 359.905 67.061 359.714C67.1838 359.522 67.3588 359.37 67.5654 359.276L122.436 327.536C122.94 327.24 123.513 327.084 124.098 327.084C124.682 327.084 125.255 327.24 125.759 327.536L279.841 416.498C280.048 416.593 280.223 416.745 280.346 416.936C280.469 417.127 280.534 417.35 280.534 417.577C280.534 417.804 280.469 418.027 280.346 418.218C280.223 418.409 280.048 418.561 279.841 418.656Z" fill="#424BA0"/>
<path d="M131.196 343.115L261.608 418.419L267.261 414.794L137.173 339.705L131.196 343.115Z" fill="#24126A"/>
<path d="M122.717 355.068L241.132 423.446L245.189 418.915L128.672 351.637L122.717 355.068Z" fill="#24126A"/>
<path d="M94.2153 349.587L242.019 434.925L247.974 431.494L100.149 346.156L94.2153 349.587Z" fill="#24126A"/>
<path d="M84.6995 355.068L232.525 440.406L238.48 436.975L90.6548 351.637L84.6995 355.068Z" fill="#24126A"/>
<path d="M75.2046 360.549L223.008 445.908L228.963 442.456L81.1599 357.118L75.2046 360.549Z" fill="#24126A"/>
<path d="M260.229 417.621L266.184 421.051L272.139 417.621L266.184 414.19L260.229 417.621Z" fill="#24126A"/>
<path d="M239.233 422.346L251.597 429.488L257.552 426.036L245.188 418.915L239.233 422.346Z" fill="#24126A"/>
<path d="M119.824 438.14L78.288 414.146C77.9273 414.03 77.6128 413.802 77.3897 413.496C77.1666 413.19 77.0464 412.82 77.0464 412.441C77.0464 412.062 77.1666 411.693 77.3897 411.387C77.6128 411.081 77.9273 410.853 78.288 410.737L106.684 394.338C107.595 393.872 108.605 393.629 109.629 393.629C110.653 393.629 111.662 393.872 112.574 394.338L154.11 418.332C154.463 418.453 154.769 418.682 154.986 418.985C155.203 419.289 155.319 419.653 155.319 420.026C155.319 420.399 155.203 420.763 154.986 421.066C154.769 421.37 154.463 421.598 154.11 421.72L125.715 438.14C124.803 438.606 123.793 438.849 122.769 438.849C121.745 438.849 120.736 438.606 119.824 438.14Z" fill="url(#paint25_linear_0_1256)"/>
<path d="M154.112 419.713L112.576 395.741C111.664 395.275 110.655 395.032 109.631 395.032C108.607 395.032 107.598 395.275 106.686 395.741L78.2902 412.139C77.8532 412.359 77.4924 412.705 77.2545 413.132C76.823 412.312 77.2545 411.406 78.2902 410.737L106.686 394.338C107.598 393.872 108.607 393.629 109.631 393.629C110.655 393.629 111.664 393.872 112.576 394.338L154.112 418.332C155.234 418.979 155.58 419.907 155.148 420.727C154.906 420.297 154.547 419.945 154.112 419.713Z" fill="#424BA0"/>
<g opacity="0.11">
<mask id="mask1_0_1256" style="mask-type:luminance" maskUnits="userSpaceOnUse" x="126" y="173" width="204" height="238">
<path d="M148.526 173.971L329.105 278.21L306.708 410.219L126.259 306.045L148.526 173.971Z" fill="white"/>
</mask>
<g mask="url(#mask1_0_1256)">
<path d="M122.591 311.352L308.025 418.397C309.064 418.982 310.227 419.315 311.419 419.367C312.612 419.42 313.799 419.191 314.886 418.699L425.534 354.809C427.282 353.795 427.066 352.025 425.038 350.838L239.625 243.794C238.582 243.217 237.419 242.891 236.228 242.842C235.036 242.793 233.85 243.023 232.764 243.514L122.116 307.382C120.347 308.396 120.562 310.187 122.591 311.352Z" fill="url(#paint26_linear_0_1256)"/>
<path d="M308.584 330.599L267.027 306.562C266.676 306.435 266.373 306.204 266.159 305.899C265.945 305.594 265.83 305.23 265.83 304.858C265.83 304.485 265.945 304.121 266.159 303.816C266.373 303.511 266.676 303.28 267.027 303.153L295.444 286.754C296.353 286.292 297.358 286.051 298.378 286.051C299.398 286.051 300.404 286.292 301.313 286.754L342.87 310.748C343.223 310.869 343.529 311.098 343.746 311.401C343.963 311.705 344.079 312.069 344.079 312.442C344.079 312.815 343.963 313.179 343.746 313.482C343.529 313.786 343.223 314.014 342.87 314.136L314.453 330.599C313.544 331.061 312.539 331.302 311.519 331.302C310.499 331.302 309.493 331.061 308.584 330.599Z" fill="url(#paint27_linear_0_1256)"/>
<path d="M342.872 312.129L301.314 288.157C300.405 287.694 299.4 287.453 298.38 287.453C297.36 287.453 296.354 287.694 295.445 288.157L267.028 304.555C266.601 304.782 266.249 305.126 266.014 305.548C265.582 304.728 265.906 303.8 267.028 303.153L295.445 286.754C296.354 286.292 297.36 286.051 298.38 286.051C299.4 286.051 300.405 286.292 301.314 286.754L342.872 310.748C343.994 311.395 344.318 312.323 343.886 313.143C343.647 312.719 343.296 312.368 342.872 312.129Z" fill="#424BA0"/>
<path d="M361.103 368.036L207.042 279.073C206.538 278.777 205.965 278.621 205.38 278.621C204.796 278.621 204.223 278.777 203.719 279.073L148.848 310.813C148.669 310.918 148.521 311.067 148.417 311.247C148.314 311.427 148.26 311.631 148.26 311.838C148.26 312.045 148.314 312.249 148.417 312.429C148.521 312.609 148.669 312.758 148.848 312.863L302.844 401.804C303.348 402.1 303.922 402.256 304.506 402.256C305.09 402.256 305.664 402.1 306.167 401.804L361.103 370.086C361.282 369.981 361.43 369.831 361.534 369.652C361.637 369.472 361.691 369.268 361.691 369.061C361.691 368.853 361.637 368.65 361.534 368.47C361.43 368.29 361.282 368.14 361.103 368.036Z" fill="#8389E6"/>
<path d="M361.103 370.086L360.563 370.409L207.042 281.749C206.535 281.463 205.962 281.313 205.38 281.313C204.798 281.313 204.226 281.463 203.719 281.749L149.409 313.187L148.848 312.863C148.669 312.758 148.521 312.609 148.417 312.429C148.314 312.249 148.26 312.045 148.26 311.838C148.26 311.631 148.314 311.427 148.417 311.247C148.521 311.067 148.669 310.918 148.848 310.813L203.719 279.073C204.223 278.777 204.796 278.621 205.38 278.621C205.965 278.621 206.538 278.777 207.042 279.073L361.103 368.036C361.282 368.14 361.43 368.29 361.534 368.47C361.637 368.65 361.691 368.853 361.691 369.061C361.691 369.268 361.637 369.472 361.534 369.652C361.43 369.831 361.282 369.981 361.103 370.086Z" fill="#424BA0"/>
<path d="M163.219 308.633L297.451 386.138L292.143 389.224L157.889 311.719L163.219 308.633Z" fill="#24126A"/>
<path d="M177.353 300.477L304.939 374.142L299.631 377.206L172.045 303.541L177.353 300.477Z" fill="#24126A"/>
<path d="M314.478 379.644L326.389 386.527L321.081 389.591L309.149 382.708L314.478 379.644Z" fill="#24126A"/>
<path d="M303.946 389.893L312.253 394.683L306.924 397.769L298.638 392.979L303.946 389.893Z" fill="#24126A"/>
<path d="M186.221 295.363L335.254 381.413L329.925 384.477L180.891 298.427L186.221 295.363Z" fill="#24126A"/>
<path d="M195.092 290.249L344.125 376.278L338.796 379.363L189.762 293.313L195.092 290.249Z" fill="#24126A"/>
<path d="M203.937 285.136L352.97 371.165L347.662 374.25L198.629 288.2L203.937 285.136Z" fill="#24126A"/>
</g>
</g>
<path d="M188.936 222.886L203.543 231.323L203.975 228.798L189.367 220.34L188.936 222.886Z" fill="#FCA311"/>
<path d="M205.898 232.682L213.86 237.278L214.292 234.732L206.33 230.136L205.898 232.682Z" fill="#FCA311"/>
<path d="M226.245 244.421L232.006 247.765L232.438 245.219L226.676 241.896L226.245 244.421Z" fill="#FCA311"/>
<path d="M222.06 242.004L224.024 243.126L224.455 240.602L222.492 239.458L222.06 242.004Z" fill="#FCA311"/>
<path d="M216.253 238.637L219.813 240.709L220.244 238.163L216.663 236.113L216.253 238.637Z" fill="#FCA311"/>
<path d="M200.504 242.284L206.265 245.628L206.697 243.082L200.935 239.759L200.504 242.284Z" fill="#FCA311"/>
<path d="M186.997 234.474L198.282 240.99L198.713 238.466L187.429 231.949L186.997 234.474Z" fill="#FCA311"/>
<path d="M203.18 275.599L214.465 282.116L214.875 279.57L203.59 273.053L203.18 275.599Z" fill="#FCA311"/>
<path d="M197.373 272.233L200.933 274.305L201.364 271.759L197.783 269.687L197.373 272.233Z" fill="#FCA311"/>
<path d="M205.055 263.991L216.34 270.507L216.772 267.961L205.487 261.445L205.055 263.991Z" fill="#FCA311"/>
<path d="M199.252 260.624L202.812 262.696L203.244 260.15L199.684 258.1L199.252 260.624Z" fill="#FCA311"/>
<path d="M194.851 325.68L173.576 313.381L173.166 315.927L194.419 328.204L194.851 325.68Z" fill="#FCA311"/>
<path d="M202.336 329.995L197.071 326.974L196.639 329.499L201.904 332.541L202.336 329.995Z" fill="#FCA311"/>
<path d="M239.687 332.476L218.433 320.177L218.002 322.724L239.255 335.001L239.687 332.476Z" fill="#FCA311"/>
<path d="M247.175 336.792L241.91 333.75L241.5 336.296L246.744 339.338L247.175 336.792Z" fill="#FCA311"/>
<path d="M180.328 310.921L174.567 307.598L174.135 310.122L179.896 313.467L180.328 310.921Z" fill="#FCA311"/>
<path d="M215.37 318.429L209.609 315.107L209.177 317.653L214.938 320.976L215.37 318.429Z" fill="#FCA311"/>
<path d="M193.833 318.732L182.548 312.216L182.117 314.74L193.402 321.278L193.833 318.732Z" fill="#FCA311"/>
<path d="M199.641 322.098L196.059 320.027L195.649 322.551L199.209 324.623L199.641 322.098Z" fill="#FCA311"/>
<path d="M213.257 329.952L201.972 323.414L201.562 325.96L212.847 332.476L213.257 329.952Z" fill="#FCA311"/>
<path d="M219.06 333.297L215.5 331.225L215.068 333.771L218.65 335.843L219.06 333.297Z" fill="#FCA311"/>
<path d="M214.375 324.235L208.614 320.912L208.182 323.436L213.943 326.781L214.375 324.235Z" fill="#FCA311"/>
<path d="M227.906 332.045L216.621 325.529L216.189 328.053L227.474 334.591L227.906 332.045Z" fill="#FCA311"/>
<path d="M233.71 335.411L230.128 333.34L229.696 335.864L233.278 337.936L233.71 335.411Z" fill="#FCA311"/>
<path d="M187.317 308.612L175.536 301.794L175.104 304.34L186.885 311.137L187.317 308.612Z" fill="#FCA311"/>
<path d="M198.084 314.827L189.561 309.907L189.129 312.432L197.652 317.351L198.084 314.827Z" fill="#FCA311"/>
<path d="M206.069 319.444L200.308 316.121L199.876 318.646L205.637 321.99L206.069 319.444Z" fill="#FCA311"/>
<path d="M261.931 345.293L250.128 338.475L249.718 341.021L261.499 347.839L261.931 345.293Z" fill="#FCA311"/>
<path d="M272.677 351.508L264.154 346.588L263.722 349.113L272.245 354.054L272.677 351.508Z" fill="#FCA311"/>
<path d="M280.661 356.125L274.9 352.802L274.469 355.327L280.23 358.671L280.661 356.125Z" fill="#FCA311"/>
<path d="M257.317 268.716L269.098 275.534L269.529 272.988L257.748 266.191L257.317 268.716Z" fill="#FCA311"/>
<path d="M246.57 262.502L255.093 267.443L255.525 264.897L247.002 259.977L246.57 262.502Z" fill="#FCA311"/>
<path d="M238.563 257.884L244.324 261.229L244.756 258.682L238.995 255.36L238.563 257.884Z" fill="#FCA311"/>
<path d="M253.41 260.086L265.191 266.882L265.623 264.358L253.842 257.539L253.41 260.086Z" fill="#FCA311"/>
<path d="M242.664 253.872L251.187 258.791L251.597 256.245L243.095 251.325L242.664 253.872Z" fill="#FCA311"/>
<path d="M234.661 249.254L240.422 252.577L240.853 250.031L235.092 246.708L234.661 249.254Z" fill="#FCA311"/>
<path d="M205.831 270.809L209.801 273.096L210.233 270.571L206.262 268.263L205.831 270.809Z" fill="#FCA311"/>
<path d="M198.346 266.472L203.589 269.515L204.021 266.969L198.756 263.926L198.346 266.472Z" fill="#FCA311"/>
<path d="M188.375 302.851L176.594 296.033L176.162 298.579L187.943 305.376L188.375 302.851Z" fill="#FCA311"/>
<path d="M199.12 309.066L190.597 304.146L190.187 306.671L198.71 311.59L199.12 309.066Z" fill="#FCA311"/>
<path d="M207.126 313.683L201.365 310.36L200.934 312.885L206.695 316.208L207.126 313.683Z" fill="#FCA311"/>
<path d="M181.559 292.538L177.567 290.251L177.136 292.775L181.128 295.084L181.559 292.538Z" fill="#FCA311"/>
<path d="M189.044 296.874L183.779 293.832L183.347 296.378L188.612 299.399L189.044 296.874Z" fill="#FCA311"/>
<path d="M199.747 303.067L191.267 298.169L190.857 300.694L199.316 305.592L199.747 303.067Z" fill="#FCA311"/>
<path d="M211.246 254.821L215.216 257.13L215.648 254.583L211.678 252.275L211.246 254.821Z" fill="#FCA311"/>
<path d="M203.761 250.484L209.005 253.526L209.436 251.002L204.171 247.959L203.761 250.484Z" fill="#FCA311"/>
<path d="M193.036 244.313L201.516 249.189L201.947 246.664L193.468 241.766L193.036 244.313Z" fill="#FCA311"/>
<path d="M217.311 264.228L225.79 269.126L226.2 266.58L217.742 261.682L217.311 264.228Z" fill="#FCA311"/>
<path d="M203.437 256.676L214.873 263.279L215.304 260.733L203.869 254.13L203.437 256.676Z" fill="#FCA311"/>
<path d="M197.634 253.311L201.216 255.382L201.647 252.836L198.066 250.786L197.634 253.311Z" fill="#FCA311"/>
<path d="M192.067 250.096L195.649 252.167L196.059 249.621L192.498 247.549L192.067 250.096Z" fill="#FCA311"/>
<path d="M192.821 282.827L204.106 289.365L204.538 286.819L193.253 280.303L192.821 282.827Z" fill="#FCA311"/>
<path d="M187.018 279.483L190.6 281.554L191.031 279.008L187.45 276.937L187.018 279.483Z" fill="#FCA311"/>
<path d="M193.597 289.646L197.588 291.955L198.02 289.409L194.028 287.122L193.597 289.646Z" fill="#FCA311"/>
<path d="M207.668 285.007L211.638 287.316L212.07 284.77L208.1 282.483L207.668 285.007Z" fill="#FCA311"/>
<path d="M213.341 288.287L222.878 293.81L223.309 291.264L213.751 285.74L213.341 288.287Z" fill="#FCA311"/>
<path d="M224.584 294.782L230.259 298.062L230.691 295.515L225.016 292.236L224.584 294.782Z" fill="#FCA311"/>
<path d="M186.112 285.33L191.377 288.351L191.808 285.826L186.544 282.784L186.112 285.33Z" fill="#FCA311"/>
<path d="M185.615 291.286L189.607 293.573L190.038 291.049L186.046 288.74L185.615 291.286Z" fill="#FCA311"/>
<path d="M178.126 286.948L183.391 289.991L183.822 287.445L178.558 284.402L178.126 286.948Z" fill="#FCA311"/>
<path d="M201.882 281.684L205.464 283.734L205.895 281.209L202.313 279.138L201.882 281.684Z" fill="#FCA311"/>
<path d="M196.315 278.448L199.897 280.519L200.307 277.995L196.746 275.923L196.315 278.448Z" fill="#FCA311"/>
<path d="M223.762 249.34L235.954 256.374L236.385 253.85L224.194 246.794L223.762 249.34Z" fill="#FCA311"/>
<path d="M210.104 241.443L221.54 248.045L221.971 245.499L210.536 238.896L210.104 241.443Z" fill="#FCA311"/>
<path d="M204.301 238.077L207.883 240.148L208.314 237.624L204.733 235.552L204.301 238.077Z" fill="#FCA311"/>
<path d="M198.734 234.861L202.316 236.933L202.726 234.387L199.165 232.337L198.734 234.861Z" fill="#FCA311"/>
<path d="M195.691 233.113L187.966 228.647L188.398 226.101L196.122 230.567L195.691 233.113Z" fill="#FCA311"/>
<path d="M118.292 335.671L124.247 339.101L130.202 335.671L124.247 332.24L118.292 335.671Z" fill="#24126A"/>
<path d="M103.706 344.107L116.07 351.228L122.003 347.797L109.661 340.655L103.706 344.107Z" fill="#24126A"/>
</g>
<defs>
<filter id="filter0_d_0_1256" x="0" y="0" width="756.002" height="520.969" filterUnits="userSpaceOnUse" color-interpolation-filters="sRGB">
<feFlood flood-opacity="0" result="BackgroundImageFix"/>
<feColorMatrix in="SourceAlpha" type="matrix" values="0 0 0 0 0 0 0 0 0 0 0 0 0 0 0 0 0 0 127 0" result="hardAlpha"/>
<feOffset dy="4"/>
<feGaussianBlur stdDeviation="2"/>
<feComposite in2="hardAlpha" operator="out"/>
<feColorMatrix type="matrix" values="0 0 0 0 0 0 0 0 0 0 0 0 0 0 0 0 0 0 0.25 0"/>
<feBlend mode="normal" in2="BackgroundImageFix" result="effect1_dropShadow_0_1256"/>
<feBlend mode="normal" in="SourceGraphic" in2="effect1_dropShadow_0_1256" result="shape"/>
</filter>
<linearGradient id="paint0_linear_0_1256" x1="4.15173" y1="173.108" x2="304.463" y2="173.108" gradientUnits="userSpaceOnUse">
<stop stop-color="#5761D7"/>
<stop offset="0.18" stop-color="#5C66D9"/>
<stop offset="0.39" stop-color="#6A73DF"/>
<stop offset="0.61" stop-color="#8289E8"/>
<stop offset="0.85" stop-color="#A3A7F5"/>
<stop offset="1" stop-color="#BCBEFF"/>
</linearGradient>
<linearGradient id="paint1_linear_0_1256" x1="105.067" y1="163.096" x2="405.55" y2="163.096" gradientUnits="userSpaceOnUse">
<stop stop-color="#C0BFF6"/>
<stop offset="0.29" stop-color="#C5C4F7"/>
<stop offset="0.64" stop-color="#D3D2F9"/>
<stop offset="1" stop-color="#E9E9FD"/>
</linearGradient>
<linearGradient id="paint2_linear_0_1256" x1="85.561" y1="139.965" x2="162.484" y2="139.965" gradientUnits="userSpaceOnUse">
<stop stop-color="#C0BFF6"/>
<stop offset="0.29" stop-color="#C5C4F7"/>
<stop offset="0.64" stop-color="#D3D2F9"/>
<stop offset="1" stop-color="#E9E9FD"/>
</linearGradient>
<linearGradient id="paint3_linear_0_1256" x1="91.5811" y1="126.113" x2="304.224" y2="126.113" gradientUnits="userSpaceOnUse">
<stop stop-color="#C0BFF6"/>
<stop offset="0.29" stop-color="#C5C4F7"/>
<stop offset="0.64" stop-color="#D3D2F9"/>
<stop offset="1" stop-color="#E9E9FD"/>
</linearGradient>
<linearGradient id="paint4_linear_0_1256" x1="91.5815" y1="180.638" x2="128.09" y2="180.638" gradientUnits="userSpaceOnUse">
<stop stop-color="#5761D7"/>
<stop offset="0.18" stop-color="#5C66D9"/>
<stop offset="0.39" stop-color="#6A73DF"/>
<stop offset="0.61" stop-color="#8289E8"/>
<stop offset="0.85" stop-color="#A3A7F5"/>
<stop offset="1" stop-color="#BCBEFF"/>
</linearGradient>
<linearGradient id="paint5_linear_0_1256" x1="751.885" y1="173.108" x2="451.553" y2="173.108" gradientUnits="userSpaceOnUse">
<stop stop-color="#5761D7"/>
<stop offset="0.18" stop-color="#5C66D9"/>
<stop offset="0.39" stop-color="#6A73DF"/>
<stop offset="0.61" stop-color="#8289E8"/>
<stop offset="0.85" stop-color="#A3A7F5"/>
<stop offset="1" stop-color="#BCBEFF"/>
</linearGradient>
<linearGradient id="paint6_linear_0_1256" x1="650.971" y1="163.096" x2="350.487" y2="163.096" gradientUnits="userSpaceOnUse">
<stop stop-color="#C0BFF6"/>
<stop offset="0.29" stop-color="#C5C4F7"/>
<stop offset="0.64" stop-color="#D3D2F9"/>
<stop offset="1" stop-color="#E9E9FD"/>
</linearGradient>
<linearGradient id="paint7_linear_0_1256" x1="670.476" y1="139.966" x2="593.553" y2="139.966" gradientUnits="userSpaceOnUse">
<stop stop-color="#C0BFF6"/>
<stop offset="0.29" stop-color="#C5C4F7"/>
<stop offset="0.64" stop-color="#D3D2F9"/>
<stop offset="1" stop-color="#E9E9FD"/>
</linearGradient>
<linearGradient id="paint8_linear_0_1256" x1="664.454" y1="126.113" x2="451.811" y2="126.113" gradientUnits="userSpaceOnUse">
<stop stop-color="#C0BFF6"/>
<stop offset="0.29" stop-color="#C5C4F7"/>
<stop offset="0.64" stop-color="#D3D2F9"/>
<stop offset="1" stop-color="#E9E9FD"/>
</linearGradient>
<linearGradient id="paint9_linear_0_1256" x1="664.455" y1="180.638" x2="627.947" y2="180.638" gradientUnits="userSpaceOnUse">
<stop stop-color="#5761D7"/>
<stop offset="0.18" stop-color="#5C66D9"/>
<stop offset="0.39" stop-color="#6A73DF"/>
<stop offset="0.61" stop-color="#8289E8"/>
<stop offset="0.85" stop-color="#A3A7F5"/>
<stop offset="1" stop-color="#BCBEFF"/>
</linearGradient>
<linearGradient id="paint10_linear_0_1256" x1="463.723" y1="329.283" x2="463.723" y2="212.162" gradientUnits="userSpaceOnUse">
<stop stop-color="#C0BFF6"/>
<stop offset="0.29" stop-color="#C5C4F7"/>
<stop offset="0.64" stop-color="#D3D2F9"/>
<stop offset="1" stop-color="#E9E9FD"/>
</linearGradient>
<linearGradient id="paint11_linear_0_1256" x1="463.723" y1="232.165" x2="463.723" y2="115.044" gradientUnits="userSpaceOnUse">
<stop stop-color="#C0BFF6"/>
<stop offset="0.29" stop-color="#C5C4F7"/>
<stop offset="0.64" stop-color="#D3D2F9"/>
<stop offset="1" stop-color="#E9E9FD"/>
</linearGradient>
<radialGradient id="paint12_radial_0_1256" cx="0" cy="0" r="1" gradientUnits="userSpaceOnUse" gradientTransform="translate(432.586 105.398) scale(4.4449)">
<stop stop-color="#FF2C9C"/>
<stop offset="0.03" stop-color="#F62F9F"/>
<stop offset="0.2" stop-color="#C63EB0"/>
<stop offset="0.37" stop-color="#9E4BBE"/>
<stop offset="0.54" stop-color="#7F54C9"/>
<stop offset="0.7" stop-color="#695BD1"/>
<stop offset="0.86" stop-color="#5C60D5"/>
<stop offset="1" stop-color="#5761D7"/>
</radialGradient>
<linearGradient id="paint13_linear_0_1256" x1="417.222" y1="291.179" x2="633.641" y2="291.179" gradientUnits="userSpaceOnUse">
<stop stop-color="#C0BFF6"/>
<stop offset="0.29" stop-color="#C5C4F7"/>
<stop offset="0.64" stop-color="#D3D2F9"/>
<stop offset="1" stop-color="#E9E9FD"/>
</linearGradient>
<linearGradient id="paint14_linear_0_1256" x1="417.225" y1="346.674" x2="454.402" y2="346.674" gradientUnits="userSpaceOnUse">
<stop stop-color="#5761D7"/>
<stop offset="0.18" stop-color="#5C66D9"/>
<stop offset="0.39" stop-color="#6A73DF"/>
<stop offset="0.61" stop-color="#8289E8"/>
<stop offset="0.85" stop-color="#A3A7F5"/>
<stop offset="1" stop-color="#BCBEFF"/>
</linearGradient>
<linearGradient id="paint15_linear_0_1256" x1="446.222" y1="409.076" x2="751.863" y2="409.076" gradientUnits="userSpaceOnUse">
<stop stop-color="#5761D7"/>
<stop offset="0.18" stop-color="#5C66D9"/>
<stop offset="0.39" stop-color="#6A73DF"/>
<stop offset="0.61" stop-color="#8289E8"/>
<stop offset="0.85" stop-color="#A3A7F5"/>
<stop offset="1" stop-color="#BCBEFF"/>
</linearGradient>
<linearGradient id="paint16_linear_0_1256" x1="548.91" y1="398.87" x2="854.723" y2="398.87" gradientUnits="userSpaceOnUse">
<stop stop-color="#C0BFF6"/>
<stop offset="0.29" stop-color="#C5C4F7"/>
<stop offset="0.64" stop-color="#D3D2F9"/>
<stop offset="1" stop-color="#E9E9FD"/>
</linearGradient>
<linearGradient id="paint17_linear_0_1256" x1="600.715" y1="416.239" x2="678.975" y2="416.239" gradientUnits="userSpaceOnUse">
<stop stop-color="#C0BFF6"/>
<stop offset="0.29" stop-color="#C5C4F7"/>
<stop offset="0.64" stop-color="#D3D2F9"/>
<stop offset="1" stop-color="#E9E9FD"/>
</linearGradient>
<linearGradient id="paint18_linear_0_1256" x1="432.091" y1="331.095" x2="737.882" y2="331.095" gradientUnits="userSpaceOnUse">
<stop stop-color="#C0BFF6"/>
<stop offset="0.29" stop-color="#C5C4F7"/>
<stop offset="0.64" stop-color="#D3D2F9"/>
<stop offset="1" stop-color="#E9E9FD"/>
</linearGradient>
<linearGradient id="paint19_linear_0_1256" x1="411.959" y1="308.655" x2="490.241" y2="308.655" gradientUnits="userSpaceOnUse">
<stop stop-color="#C0BFF6"/>
<stop offset="0.29" stop-color="#C5C4F7"/>
<stop offset="0.64" stop-color="#D3D2F9"/>
<stop offset="1" stop-color="#E9E9FD"/>
</linearGradient>
<linearGradient id="paint20_linear_0_1256" x1="14.0542" y1="428.128" x2="302.131" y2="428.128" gradientUnits="userSpaceOnUse">
<stop stop-color="#5761D7"/>
<stop offset="0.14" stop-color="#5C60D5"/>
<stop offset="0.3" stop-color="#695BD1"/>
<stop offset="0.46" stop-color="#7F54C9"/>
<stop offset="0.63" stop-color="#9E4BBE"/>
<stop offset="0.8" stop-color="#C63EB0"/>
<stop offset="0.97" stop-color="#F62F9F"/>
<stop offset="1" stop-color="#FF2C9C"/>
</linearGradient>
<linearGradient id="paint21_linear_0_1256" x1="338.813" y1="291.178" x2="122.415" y2="291.178" gradientUnits="userSpaceOnUse">
<stop stop-color="#C0BFF6"/>
<stop offset="0.29" stop-color="#C5C4F7"/>
<stop offset="0.64" stop-color="#D3D2F9"/>
<stop offset="1" stop-color="#E9E9FD"/>
</linearGradient>
<linearGradient id="paint22_linear_0_1256" x1="338.814" y1="346.674" x2="301.658" y2="346.674" gradientUnits="userSpaceOnUse">
<stop stop-color="#5761D7"/>
<stop offset="0.18" stop-color="#5C66D9"/>
<stop offset="0.39" stop-color="#6A73DF"/>
<stop offset="0.61" stop-color="#8289E8"/>
<stop offset="0.85" stop-color="#A3A7F5"/>
<stop offset="1" stop-color="#BCBEFF"/>
</linearGradient>
<linearGradient id="paint23_linear_0_1256" x1="309.834" y1="409.076" x2="4.19385" y2="409.076" gradientUnits="userSpaceOnUse">
<stop stop-color="#5761D7"/>
<stop offset="0.18" stop-color="#5C66D9"/>
<stop offset="0.39" stop-color="#6A73DF"/>
<stop offset="0.61" stop-color="#8289E8"/>
<stop offset="0.85" stop-color="#A3A7F5"/>
<stop offset="1" stop-color="#BCBEFF"/>
</linearGradient>
<linearGradient id="paint24_linear_0_1256" x1="207.128" y1="398.87" x2="-98.664" y2="398.87" gradientUnits="userSpaceOnUse">
<stop stop-color="#C0BFF6"/>
<stop offset="0.29" stop-color="#C5C4F7"/>
<stop offset="0.64" stop-color="#D3D2F9"/>
<stop offset="1" stop-color="#E9E9FD"/>
</linearGradient>
<linearGradient id="paint25_linear_0_1256" x1="155.34" y1="416.239" x2="77.0797" y2="416.239" gradientUnits="userSpaceOnUse">
<stop stop-color="#C0BFF6"/>
<stop offset="0.29" stop-color="#C5C4F7"/>
<stop offset="0.64" stop-color="#D3D2F9"/>
<stop offset="1" stop-color="#E9E9FD"/>
</linearGradient>
<linearGradient id="paint26_linear_0_1256" x1="323.97" y1="331.095" x2="18.1788" y2="331.095" gradientUnits="userSpaceOnUse">
<stop stop-color="#C0BFF6"/>
<stop offset="0.29" stop-color="#C5C4F7"/>
<stop offset="0.64" stop-color="#D3D2F9"/>
<stop offset="1" stop-color="#E9E9FD"/>
</linearGradient>
<linearGradient id="paint27_linear_0_1256" x1="344.1" y1="308.655" x2="265.818" y2="308.655" gradientUnits="userSpaceOnUse">
<stop stop-color="#C0BFF6"/>
<stop offset="0.29" stop-color="#C5C4F7"/>
<stop offset="0.64" stop-color="#D3D2F9"/>
<stop offset="1" stop-color="#E9E9FD"/>
</linearGradient>
</defs>
</svg>
